<svg width="245" height="54" viewBox="0 0 245 54" fill="none" xmlns="http://www.w3.org/2000/svg">
<g clip-path="url(#clip0_214_5974)">
<path d="M122.545 38.6612C122.12 38.6656 121.698 38.5908 121.301 38.4407C120.932 38.305 120.595 38.0955 120.31 37.825C120.025 37.5546 119.799 37.229 119.644 36.8682C119.328 36.1 119.328 35.2385 119.644 34.4703C119.797 34.1117 120.023 33.7887 120.307 33.5214C120.595 33.2473 120.936 33.035 121.309 32.8977C122.155 32.5904 123.085 32.6048 123.921 32.9381C124.321 33.1051 124.673 33.3672 124.947 33.7015L124.077 34.5079C123.897 34.2929 123.673 34.1188 123.42 33.9972C123.168 33.8791 122.891 33.8194 122.612 33.8225C122.357 33.8197 122.104 33.8662 121.866 33.9596C121.647 34.0475 121.447 34.1781 121.279 34.344C121.112 34.5113 120.981 34.7107 120.894 34.93C120.711 35.4151 120.711 35.9502 120.894 36.4354C120.981 36.655 121.112 36.8544 121.279 37.0214C121.446 37.1883 121.646 37.3192 121.866 37.4058C122.104 37.4991 122.357 37.5457 122.612 37.5429C122.892 37.5464 123.168 37.4857 123.42 37.3655C123.673 37.2409 123.897 37.0651 124.077 36.8494L124.947 37.6424C124.672 37.9766 124.32 38.2402 123.921 38.4112C123.484 38.5871 123.016 38.6721 122.545 38.6612Z" fill="#7FB138"/>
<path d="M125.093 38.5594L127.668 32.7744H128.993L131.592 38.5594H130.186L128.058 33.4518H128.597L126.469 38.5594H125.093ZM126.394 37.3201L126.733 36.304H129.731L130.078 37.3201H126.394Z" fill="#7FB138"/>
<path d="M132.184 38.5589V32.7766H134.691C135.153 32.7638 135.612 32.85 136.038 33.0293C136.393 33.1791 136.696 33.4307 136.908 33.7524C137.109 34.0905 137.215 34.4763 137.215 34.8694C137.215 35.2625 137.109 35.6483 136.908 35.9863C136.695 36.3049 136.392 36.553 136.038 36.6987C135.61 36.8703 135.152 36.9527 134.691 36.9406H132.919L133.533 36.3627V38.5589H132.184ZM133.53 36.5105L132.916 35.8734H134.616C134.946 35.8948 135.274 35.7996 135.542 35.6046C135.648 35.5125 135.731 35.3976 135.786 35.2686C135.84 35.1396 135.865 34.9998 135.857 34.86C135.865 34.7208 135.841 34.5817 135.787 34.4535C135.732 34.3252 135.648 34.2113 135.542 34.1207C135.274 33.9257 134.946 33.8305 134.616 33.8519H132.916L133.53 33.2148V36.5105ZM135.865 38.5589L134.408 36.4594H135.865L137.322 38.5589H135.865Z" fill="#7FB138"/>
<path d="M138.268 38.5591V32.7769H141.101C141.828 32.7769 142.378 32.914 142.744 33.1908C142.916 33.3152 143.055 33.4796 143.149 33.6698C143.243 33.86 143.289 34.0703 143.283 34.2822C143.29 34.5614 143.212 34.8361 143.059 35.0699C142.907 35.2969 142.693 35.4759 142.442 35.586C142.163 35.7112 141.86 35.7737 141.553 35.7688L141.71 35.422C142.04 35.4151 142.368 35.4764 142.674 35.6021C142.94 35.7159 143.169 35.9022 143.334 36.1398C143.499 36.3926 143.583 36.69 143.573 36.9919C143.582 37.2193 143.533 37.4451 143.43 37.6482C143.327 37.8513 143.175 38.025 142.986 38.1532C142.593 38.4292 142.016 38.5681 141.254 38.5699L138.268 38.5591ZM139.601 37.5511H141.174C141.447 37.5672 141.719 37.5066 141.96 37.3763C142.049 37.3191 142.121 37.239 142.169 37.1444C142.216 37.0498 142.237 36.9442 142.229 36.8387C142.236 36.7333 142.215 36.628 142.168 36.5336C142.12 36.4391 142.049 36.3589 141.96 36.301C141.719 36.1707 141.447 36.1102 141.174 36.1263H139.501V35.1505H140.934C141.195 35.1664 141.454 35.1076 141.683 34.9812C141.77 34.927 141.841 34.8506 141.888 34.7598C141.935 34.669 141.957 34.5672 141.952 34.465C141.958 34.3635 141.936 34.2623 141.888 34.1723C141.841 34.0823 141.77 34.0069 141.683 33.9543C141.454 33.83 141.194 33.7722 140.934 33.7876H139.587L139.601 37.5511Z" fill="#7FB138"/>
<path d="M147.417 38.6613C146.985 38.6655 146.556 38.5899 146.151 38.4382C145.776 38.2981 145.433 38.0842 145.141 37.8091C144.856 37.5421 144.628 37.219 144.474 36.8602C144.161 36.096 144.161 35.24 144.474 34.4758C144.629 34.1182 144.856 33.7961 145.141 33.5296C145.431 33.2558 145.773 33.042 146.146 32.9005C146.962 32.6048 147.856 32.6048 148.672 32.9005C149.046 33.0397 149.389 33.2517 149.68 33.5242C149.965 33.7914 150.191 34.1144 150.345 34.4731C150.661 35.2394 150.661 36.0993 150.345 36.8656C150.193 37.2267 149.966 37.5518 149.68 37.8199C149.389 38.0924 149.046 38.3044 148.672 38.4436C148.271 38.5932 147.846 38.667 147.417 38.6613ZM147.417 37.5296C147.663 37.5324 147.907 37.4858 148.134 37.3925C148.349 37.3024 148.545 37.1709 148.71 37.0054C148.875 36.8356 149.006 36.6358 149.095 36.4167C149.278 35.9352 149.278 35.4035 149.095 34.922C149.007 34.7034 148.876 34.5043 148.71 34.336C148.546 34.1688 148.35 34.0363 148.134 33.9462C147.907 33.8529 147.663 33.8063 147.417 33.8091C147.171 33.8068 146.926 33.8534 146.698 33.9462C146.481 34.0349 146.285 34.1677 146.122 34.336C145.959 34.5053 145.83 34.7042 145.742 34.922C145.559 35.4035 145.559 35.9352 145.742 36.4167C145.831 36.6349 145.96 36.8346 146.122 37.0054C146.286 37.1721 146.482 37.3038 146.698 37.3925C146.924 37.4843 147.166 37.5308 147.409 37.5296H147.417Z" fill="#7FB138"/>
<path d="M151.592 38.5591V32.7769H152.701L156.119 36.9462H155.581V32.7769H156.903V38.5591H155.796L152.378 34.3951H152.917V38.5591H151.592Z" fill="#7FB138"/>
<path d="M160.625 38.5594V32.7771H163.256C163.832 32.7655 164.402 32.8889 164.921 33.1373C165.384 33.3601 165.775 33.7097 166.047 34.1454C166.313 34.6093 166.453 35.1348 166.453 35.6696C166.453 36.2044 166.313 36.7298 166.047 37.1938C165.775 37.6295 165.384 37.979 164.921 38.2018C164.402 38.4503 163.832 38.5737 163.256 38.5621L160.625 38.5594ZM161.972 37.468H163.189C163.536 37.4765 163.881 37.4019 164.194 37.2502C164.472 37.1114 164.703 36.8922 164.856 36.6212C165.012 36.3261 165.093 35.9977 165.093 35.6642C165.093 35.3307 165.012 35.0023 164.856 34.7072C164.701 34.4396 164.47 34.2229 164.194 34.0836C163.881 33.932 163.536 33.8573 163.189 33.8658H161.972V37.468Z" fill="#7FB138"/>
<path d="M167.463 38.5591V32.7769H168.81V38.5591H167.463Z" fill="#7FB138"/>
<path d="M172.995 38.6612C172.562 38.6653 172.132 38.5897 171.727 38.438C171.352 38.2966 171.009 38.0829 170.717 37.809C170.432 37.5418 170.205 37.2188 170.051 36.8601C169.735 36.0965 169.735 35.2392 170.051 34.4757C170.206 34.1182 170.432 33.7961 170.717 33.5294C171.008 33.2556 171.35 33.0419 171.724 32.9004C172.539 32.6048 173.432 32.6048 174.248 32.9004C174.622 33.0389 174.964 33.251 175.255 33.5241C175.54 33.7912 175.766 34.1143 175.92 34.473C176.236 35.2393 176.236 36.0992 175.92 36.8655C175.768 37.2265 175.541 37.5516 175.255 37.8198C174.964 38.0928 174.622 38.3049 174.248 38.4434C173.847 38.593 173.423 38.6669 172.995 38.6612ZM172.995 37.5294C173.241 37.532 173.484 37.4854 173.712 37.3923C173.926 37.3022 174.121 37.1707 174.285 37.0052C174.451 36.8362 174.582 36.6361 174.67 36.4165C174.854 35.9351 174.854 35.4033 174.67 34.9219C174.583 34.7028 174.452 34.5035 174.285 34.3359C174.122 34.1688 173.927 34.0362 173.712 33.9461C173.484 33.8531 173.241 33.8064 172.995 33.809C172.748 33.8064 172.502 33.8531 172.273 33.9461C172.056 34.0348 171.86 34.1675 171.697 34.3359C171.534 34.5051 171.405 34.7041 171.317 34.9219C171.134 35.4033 171.134 35.9351 171.317 36.4165C171.406 36.6348 171.535 36.8344 171.697 37.0052C171.861 37.1719 172.057 37.3036 172.273 37.3923C172.5 37.4843 172.742 37.5309 172.987 37.5294H172.995Z" fill="#7FB138"/>
<path d="M176.513 38.5594L178.996 35.1293V36.1051L176.62 32.7744H178.15L179.799 35.0889L179.152 35.1051L180.79 32.7744H182.239L179.871 36.0459V35.0916L182.381 38.5621H180.833L179.128 36.1078H179.739L178.059 38.5621L176.513 38.5594Z" fill="#7FB138"/>
<path d="M183.079 38.5591V32.7769H184.426V38.5591H183.079Z" fill="#7FB138"/>
<path d="M185.794 38.5594V32.7771H188.428C189.003 32.7655 189.574 32.8889 190.092 33.1373C190.555 33.3609 190.946 33.7103 191.218 34.1454C191.485 34.6093 191.625 35.1348 191.625 35.6696C191.625 36.2044 191.485 36.7298 191.218 37.1938C190.946 37.6289 190.555 37.9783 190.092 38.2018C189.574 38.4503 189.003 38.5737 188.428 38.5621L185.794 38.5594ZM187.141 37.468H188.358C188.706 37.4765 189.052 37.4019 189.365 37.2502C189.643 37.1099 189.874 36.8911 190.028 36.6212C190.182 36.3256 190.262 35.9974 190.262 35.6642C190.262 35.3311 190.182 35.0028 190.028 34.7072C189.871 34.4402 189.641 34.2238 189.365 34.0836C189.052 33.9319 188.706 33.8573 188.358 33.8658H187.141V37.468Z" fill="#7FB138"/>
<path d="M193.968 37.4838H197.122V38.5591H192.635V32.7769H197.003V33.8521H193.957L193.968 37.4838ZM193.868 35.0967H196.659V36.1398H193.868V35.0967Z" fill="#7FB138"/>
<path d="M200.531 38.5589V32.7766H203.041C203.503 32.7638 203.962 32.85 204.388 33.0293C204.743 33.1797 205.045 33.4313 205.258 33.7524C205.459 34.0905 205.565 34.4763 205.565 34.8694C205.565 35.2625 205.459 35.6483 205.258 35.9863C205.045 36.3044 204.742 36.5523 204.388 36.6987C203.96 36.8703 203.502 36.9527 203.041 36.9406H201.269L201.881 36.3627V38.5589H200.531ZM201.878 36.5105L201.267 35.8734H202.963C203.295 35.8949 203.624 35.7998 203.892 35.6046C203.997 35.512 204.08 35.3969 204.134 35.268C204.188 35.139 204.212 34.9996 204.205 34.86C204.213 34.7211 204.189 34.5822 204.135 34.4541C204.081 34.3259 203.998 34.2118 203.892 34.1207C203.624 33.9255 203.295 33.8304 202.963 33.8519H201.267L201.878 33.2148V36.5105ZM204.224 38.5589L202.764 36.4594H204.205L205.665 38.5589H204.224Z" fill="#7FB138"/>
<path d="M207.951 37.4838H211.105V38.5591H206.618V32.7769H211.008V33.8521H207.962L207.951 37.4838ZM207.852 35.0967H210.642V36.1398H207.852V35.0967Z" fill="#7FB138"/>
<path d="M212.175 38.5591V32.7769H213.284L215.752 36.8602H215.164L217.588 32.7769H218.706V38.5591H217.456L217.44 34.6989H217.688L215.735 37.9381H215.137L213.163 34.7016H213.433V38.5591H212.175Z" fill="#7FB138"/>
<path d="M222.896 38.6613C222.464 38.6655 222.035 38.5899 221.631 38.4382C221.255 38.2975 220.91 38.0837 220.618 37.8091C220.333 37.542 220.107 37.2189 219.953 36.8602C219.637 36.0967 219.637 35.2393 219.953 34.4758C220.107 34.1183 220.334 33.7963 220.618 33.5296C220.909 33.2563 221.252 33.0426 221.625 32.9005C222.441 32.6048 223.336 32.6048 224.152 32.9005C224.525 33.0389 224.867 33.251 225.156 33.5242C225.442 33.7913 225.669 34.1143 225.824 34.4731C226.136 35.2402 226.136 36.0986 225.824 36.8656C225.671 37.2268 225.443 37.5519 225.156 37.8199C224.867 38.0931 224.525 38.3052 224.152 38.4436C223.75 38.593 223.325 38.6668 222.896 38.6613ZM222.896 37.5296C223.142 37.5321 223.386 37.4855 223.613 37.3925C223.828 37.303 224.023 37.1714 224.187 37.0054C224.353 36.837 224.484 36.6368 224.572 36.4167C224.755 35.9352 224.755 35.4035 224.572 34.922C224.394 34.4829 224.049 34.1319 223.613 33.9462C223.386 33.8532 223.142 33.8066 222.896 33.8091C222.649 33.8066 222.404 33.8532 222.175 33.9462C221.958 34.0344 221.763 34.1672 221.601 34.336C221.436 34.5045 221.306 34.7036 221.219 34.922C221.04 35.4042 221.04 35.9345 221.219 36.4167C221.307 36.6356 221.437 36.8355 221.601 37.0054C221.763 37.1726 221.959 37.3044 222.175 37.3925C222.401 37.4845 222.644 37.5311 222.888 37.5296H222.896Z" fill="#7FB138"/>
<path d="M228.808 38.5594L226.298 32.7744H227.755L229.942 37.8981H229.088L231.307 32.7744H232.654L230.13 38.5594H228.808Z" fill="#7FB138"/>
<path d="M232.484 38.5594L235.059 32.7744H236.384L238.983 38.5594H237.575L235.447 33.4518H235.986L233.858 38.5594H232.484ZM233.785 37.3201L234.125 36.304H237.133L237.48 37.3201H233.785Z" fill="#7FB138"/>
<path d="M239.59 38.5591V32.7769H240.936V37.4838H243.826V38.5591H239.59Z" fill="#7FB138"/>
<path d="M74.4349 27.6237C72.93 27.6364 71.4356 27.3731 70.026 26.8468C68.7217 26.3656 67.5296 25.6236 66.5228 24.6663C65.516 23.709 64.7156 22.5565 64.1708 21.2796C63.0577 18.5636 63.0577 15.5198 64.1708 12.8038C64.7135 11.5355 65.5099 10.3912 66.5112 9.44089C67.5339 8.47729 68.7388 7.72699 70.0556 7.23391C73.0527 6.14843 76.3449 6.19913 79.307 7.37638C80.7211 7.96709 81.9679 8.89579 82.9376 10.0807L79.8457 12.8898C79.2083 12.1272 78.4149 11.5094 77.5187 11.078C76.6344 10.6664 75.6692 10.457 74.6935 10.4651C73.7918 10.4551 72.8966 10.6184 72.0567 10.9463C71.2775 11.2524 70.5697 11.7155 69.9775 12.3065C69.3853 12.8976 68.9214 13.604 68.6147 14.3818C67.9718 16.097 67.9718 17.9864 68.6147 19.7017C68.9214 20.4794 69.3853 21.1859 69.9775 21.7769C70.5697 22.368 71.2775 22.831 72.0567 23.1371C72.8966 23.465 73.7918 23.6283 74.6935 23.6183C75.671 23.6263 76.6373 23.4111 77.5187 22.9893C78.4132 22.5491 79.2058 21.9275 79.8457 21.164L82.9214 23.9678C81.954 25.1522 80.714 26.0856 79.307 26.6882C77.765 27.332 76.1062 27.6505 74.4349 27.6237Z" fill="#7FB138"/>
<path d="M90.618 27.5053C89.539 27.5328 88.4676 27.3178 87.483 26.8763C86.659 26.5053 85.9541 25.9134 85.4469 25.1666C84.9712 24.4497 84.7216 23.607 84.7304 22.7472C84.6967 21.8458 84.959 20.9581 85.4773 20.219C85.9955 19.48 86.7414 18.9302 87.6015 18.6532C88.5944 18.2661 89.9025 18.0716 91.5257 18.0698H95.6841V20.7015H91.9943C90.917 20.7015 90.1798 20.8763 89.783 21.2257C89.5909 21.3867 89.4373 21.5886 89.3334 21.8165C89.2295 22.0444 89.1779 22.2926 89.1824 22.5429C89.1737 22.8127 89.2318 23.0804 89.3516 23.3224C89.4714 23.5644 89.6492 23.7731 89.8692 23.93C90.4179 24.2968 91.0709 24.476 91.7303 24.4408C92.4619 24.4532 93.1839 24.2724 93.823 23.9166C94.4435 23.5597 94.9084 22.9846 95.1265 22.3037L95.8295 24.4354C95.5188 25.385 94.8739 26.19 94.0142 26.7015C93.1434 27.2392 92.0113 27.5071 90.618 27.5053ZM95.4201 27.2714V24.2015L95.1265 23.5295V18.0349C95.1265 17.0618 94.8285 16.3019 94.2324 15.7553C93.6362 15.2087 92.7241 14.9399 91.496 14.9489C90.6553 14.9481 89.8199 15.0805 89.0209 15.3413C88.2666 15.5791 87.5581 15.9426 86.9255 16.4166L85.3095 13.2311C86.2475 12.5705 87.3006 12.09 88.4149 11.8144C89.6183 11.4927 90.8588 11.33 92.1047 11.3306C94.5071 11.3306 96.3718 11.896 97.6986 13.0268C99.0255 14.1576 99.689 15.9211 99.689 18.3171V27.2687L95.4201 27.2714Z" fill="#7FB138"/>
<path d="M103.834 27.2687V11.5429H108.197V16.016L107.583 14.7015C108.02 13.6245 108.817 12.731 109.837 12.1719C111 11.5674 112.298 11.2703 113.608 11.309V15.5483C113.433 15.5079 113.26 15.4811 113.096 15.4596C112.935 15.4407 112.773 15.4308 112.611 15.43C111.324 15.43 110.3 15.7884 109.538 16.5053C108.777 17.2221 108.395 18.3359 108.394 19.8467V27.2687H103.834Z" fill="#7FB138"/>
<path d="M116.458 27.269V5.5835H121.037V14.7233L120.743 19.3711L120.832 24.0485V27.2744L116.458 27.269ZM125.742 27.5029C124.509 27.5316 123.291 27.2339 122.211 26.64C121.171 26.0256 120.363 25.0853 119.914 23.9652C119.386 22.7573 119.122 21.234 119.122 19.3953C119.122 17.5566 119.4 16.0333 119.957 14.8254C120.44 13.7203 121.254 12.791 122.286 12.1641C123.338 11.5656 124.532 11.2627 125.742 11.2878C127.154 11.2614 128.548 11.6093 129.782 12.2959C130.958 12.9646 131.93 13.9404 132.594 15.1184C133.277 16.4376 133.633 17.9009 133.633 19.3859C133.633 20.8709 133.277 22.3342 132.594 23.6534C131.929 24.8301 130.957 25.8047 129.782 26.4733C128.55 27.1683 127.156 27.5245 125.742 27.5055V27.5029ZM124.98 23.7744C125.692 23.7872 126.394 23.6109 127.016 23.2636C127.626 22.9069 128.123 22.385 128.449 21.7582C128.824 21.0369 129.009 20.2321 128.987 19.4195C129.013 18.6066 128.828 17.8008 128.449 17.0808C128.116 16.4668 127.62 15.9562 127.016 15.605C126.394 15.2577 125.692 15.0814 124.98 15.0942C124.263 15.0821 123.556 15.2582 122.93 15.605C122.318 15.9524 121.817 16.4636 121.481 17.0808C121.102 17.8008 120.916 18.6066 120.942 19.4195C120.92 20.2321 121.105 21.0369 121.481 21.7582C121.81 22.3882 122.312 22.9107 122.93 23.2636C123.556 23.6104 124.263 23.7865 124.98 23.7744Z" fill="#7FB138"/>
<path d="M144.131 27.5051C142.588 27.5336 141.062 27.1721 139.696 26.4541C138.749 25.923 137.917 25.2092 137.25 24.3543C136.582 23.4993 136.092 22.5202 135.807 21.4742C135.522 20.4281 135.449 19.3359 135.591 18.2613C135.733 17.1867 136.089 16.1511 136.636 15.2148C137.375 13.999 138.433 13.008 139.696 12.3492C141.065 11.6409 142.589 11.2842 144.131 11.3116C145.688 11.2835 147.228 11.64 148.613 12.3492C149.881 13.006 150.944 13.9972 151.686 15.2148C152.262 16.1448 152.64 17.1832 152.797 18.2653C152.954 19.3474 152.886 20.4501 152.598 21.5049C152.31 22.5598 151.807 23.5442 151.122 24.397C150.436 25.2498 149.582 25.9527 148.613 26.4621C147.23 27.1781 145.689 27.5367 144.131 27.5051ZM144.131 23.7632C144.853 23.7786 145.566 23.6023 146.197 23.2525C146.808 22.8957 147.304 22.3738 147.63 21.7471C148.006 21.0258 148.191 20.2209 148.169 19.4084C148.195 18.5954 148.009 17.7896 147.63 17.0697C147.297 16.4557 146.802 15.945 146.197 15.5939C145.576 15.2463 144.873 15.07 144.161 15.0831C143.445 15.0709 142.738 15.2471 142.112 15.5939C141.5 15.9412 140.998 16.4524 140.663 17.0697C140.283 17.7896 140.098 18.5954 140.124 19.4084C140.102 20.2209 140.287 21.0258 140.663 21.7471C140.991 22.377 141.494 22.8996 142.112 23.2525C142.727 23.5998 143.424 23.7797 144.131 23.774V23.7632Z" fill="#7FB138"/>
<path d="M165.421 11.312C166.583 11.2924 167.732 11.5486 168.774 12.0593C169.768 12.5618 170.581 13.3578 171.104 14.3388C171.67 15.3603 171.953 16.6704 171.953 18.2689V27.2689H167.374V18.9706C167.374 17.7053 167.096 16.7698 166.539 16.1641C165.982 15.5584 165.196 15.2564 164.18 15.2582C163.501 15.2476 162.832 15.4085 162.232 15.7259C161.656 16.0393 161.187 16.5178 160.886 17.0996C160.534 17.8485 160.369 18.6711 160.404 19.4974V27.2689H155.825V11.5431H160.191V15.898L159.383 14.5835C159.93 13.5527 160.774 12.7098 161.807 12.1641C162.921 11.5806 164.164 11.2875 165.421 11.312Z" fill="#7FB138"/>
<path d="M175.028 27.269V23.6185L187.062 9.32545L187.768 11.4007H175.263V6.81201H192.92V10.4652L180.843 24.7583L180.14 22.683H193.337V27.269H175.028Z" fill="#448438"/>
<path d="M203.99 27.5378C202.283 27.5773 200.591 27.2086 199.056 26.4626C197.722 25.808 196.597 24.7964 195.805 23.5405C195.029 22.2796 194.628 20.8241 194.65 19.3443C194.622 17.8499 195.012 16.3773 195.776 15.0916C196.527 13.8575 197.604 12.8532 198.889 12.1884C200.276 11.4702 201.821 11.109 203.384 11.1373C204.862 11.1175 206.324 11.4531 207.645 12.1158C208.907 12.7542 209.971 13.7246 210.721 14.9222C211.491 16.1409 211.876 17.6265 211.876 19.3792C211.876 19.5755 211.876 19.7986 211.846 20.0513C211.817 20.304 211.809 20.5405 211.79 20.7529H199.226V17.8308H208.83L206.721 18.6373C206.755 17.9953 206.62 17.3557 206.328 16.7824C206.064 16.2699 205.663 15.8401 205.17 15.5405C204.646 15.2384 204.048 15.0868 203.443 15.1023C202.819 15.0865 202.201 15.2378 201.655 15.5405C201.155 15.8303 200.754 16.2641 200.505 16.7851C200.23 17.3736 200.094 18.0176 200.109 18.6669V19.5163C200.091 20.2188 200.257 20.9138 200.591 21.5325C200.914 22.0961 201.399 22.5495 201.984 22.8335C202.657 23.1481 203.395 23.3027 204.138 23.2851C204.827 23.3117 205.514 23.2039 206.161 22.9679C206.76 22.7118 207.313 22.3615 207.801 21.9303L210.699 25.0002C209.931 25.8348 208.978 26.4791 207.917 26.8819C206.661 27.3447 205.329 27.5672 203.99 27.5378Z" fill="#448438"/>
<path d="M214.445 27.269V11.4088H219.775V16.0567L218.967 14.7394C219.405 13.6091 220.215 12.6611 221.265 12.0513C222.435 11.4159 223.755 11.1032 225.086 11.1454V16.1722C224.833 16.1346 224.607 16.1104 224.413 16.0997C224.219 16.0889 224.023 16.0862 223.829 16.0862C222.828 16.0411 221.846 16.3687 221.074 17.0056C220.373 17.6185 220.022 18.6176 220.02 20.0029V27.269H214.445Z" fill="#448438"/>
<path d="M235.385 27.5374C233.78 27.5688 232.191 27.208 230.758 26.4864C229.453 25.8242 228.354 24.8184 227.58 23.5778C226.822 22.2932 226.422 20.8294 226.422 19.3385C226.422 17.8476 226.822 16.3839 227.58 15.0993C228.354 13.8586 229.453 12.8528 230.758 12.1907C232.204 11.4988 233.788 11.1396 235.392 11.1396C236.996 11.1396 238.579 11.4988 240.026 12.1907C241.336 12.8501 242.44 13.8563 243.217 15.0993C243.975 16.3839 244.375 17.8476 244.375 19.3385C244.375 20.8294 243.975 22.2932 243.217 23.5778C242.44 24.8208 241.336 25.8269 240.026 26.4864C238.587 27.2065 236.994 27.5672 235.385 27.5374ZM235.385 23.1235C235.976 23.1325 236.557 22.981 237.068 22.6853C237.584 22.3734 238 21.9223 238.27 21.3842C238.586 20.7448 238.741 20.038 238.722 19.3251C238.747 18.6151 238.592 17.9103 238.27 17.2767C237.989 16.7565 237.573 16.3219 237.065 16.0189C236.557 15.7159 235.977 15.5559 235.385 15.5559C234.793 15.5559 234.213 15.7159 233.705 16.0189C233.197 16.3219 232.781 16.7565 232.501 17.2767C232.176 17.9096 232.02 18.6147 232.045 19.3251C232.026 20.0383 232.182 20.7455 232.501 21.3842C232.768 21.9227 233.184 22.374 233.699 22.6853C234.211 22.9807 234.794 23.1312 235.385 23.1208V23.1235Z" fill="#448438"/>
<path d="M66.4408 48.4167C66.0937 48.4242 65.7485 48.3632 65.4249 48.2373C65.1014 48.1113 64.806 47.9229 64.5555 47.6828C64.2991 47.4339 64.098 47.1339 63.9653 46.8023C63.8326 46.4707 63.7712 46.1149 63.7853 45.7581C63.7708 45.4077 63.8322 45.0582 63.9651 44.7335C64.098 44.4088 64.2994 44.1165 64.5555 43.8764C65.0794 43.4191 65.7516 43.167 66.4476 43.167C67.1435 43.167 67.8158 43.4191 68.3396 43.8764C68.5967 44.1159 68.7989 44.4081 68.9323 44.7329C69.0658 45.0576 69.1272 45.4074 69.1126 45.7581C69.1266 46.1152 69.065 46.4711 68.9318 46.8028C68.7986 47.1344 68.5968 47.4343 68.3396 47.6828C68.0878 47.9248 67.7902 48.1143 67.4642 48.2403C67.1382 48.3663 66.7903 48.4263 66.4408 48.4167Z" fill="#F7941D"/>
<path d="M77.8391 48.4165C76.4781 48.4507 75.1287 48.1585 73.9042 47.5644C72.8397 47.0428 71.9417 46.2358 71.3106 45.2337C70.6907 44.2293 70.3702 43.0693 70.3868 41.8897C70.3655 40.6974 70.677 39.5228 71.2863 38.4972C71.8839 37.5121 72.741 36.7096 73.7642 36.1773C74.8707 35.6048 76.1028 35.3165 77.3489 35.3386C78.5282 35.3225 79.694 35.5899 80.7479 36.1181C81.7549 36.6275 82.6033 37.4018 83.2014 38.3574C83.8428 39.4296 84.1624 40.663 84.1225 41.9111C84.1225 42.0671 84.1226 42.2472 84.0983 42.4488C84.0741 42.6504 84.0687 42.8359 84.0526 43.0079H74.0308V40.6773H81.6932L80.0126 41.3278C80.0364 40.8162 79.9278 40.307 79.6975 39.8493C79.4872 39.4399 79.1675 39.0966 78.7737 38.8574C78.3551 38.6163 77.8778 38.4954 77.3947 38.5079C76.8971 38.496 76.4054 38.6166 75.97 38.8574C75.5695 39.0874 75.2483 39.4333 75.0489 39.8493C74.8294 40.3194 74.7216 40.8336 74.7338 41.352V42.0294C74.7171 42.5916 74.85 43.1481 75.1189 43.6423C75.3742 44.093 75.7614 44.455 76.2286 44.68C76.7678 44.9333 77.3591 45.0567 77.9549 45.0402C78.5059 45.0549 79.0545 44.9637 79.5709 44.7714C80.0479 44.5653 80.4896 44.286 80.8799 43.9434L83.1907 46.3896C82.5786 47.0573 81.8186 47.5728 80.9714 47.895C79.9694 48.2637 78.9068 48.4406 77.8391 48.4165Z" fill="#F7941D"/>
<path d="M92.6495 48.4168C91.3433 48.4441 90.0498 48.1564 88.8789 47.5781C87.8269 47.0525 86.9385 46.2504 86.3095 45.2582C85.698 44.2382 85.375 43.0718 85.375 41.8832C85.375 40.6945 85.698 39.5281 86.3095 38.5082C86.9432 37.5199 87.8304 36.7189 88.8789 36.1883C90.0476 35.6025 91.3421 35.3109 92.6495 35.3388C93.9479 35.3054 95.2313 35.623 96.3636 36.2582C97.3721 36.8328 98.1541 37.7337 98.5801 38.8119L95.1489 40.5834C94.91 40.059 94.5295 39.6112 94.05 39.2904C93.6245 39.0201 93.1297 38.8782 92.6252 38.8818C92.1393 38.8742 91.6599 38.9947 91.2355 39.2313C90.8191 39.4691 90.4755 39.8158 90.2417 40.234C89.9971 40.7476 89.8701 41.3091 89.8701 41.8778C89.8701 42.4465 89.9971 43.008 90.2417 43.5216C90.471 43.9487 90.8152 44.3034 91.2355 44.5458C91.6599 44.7824 92.1393 44.9029 92.6252 44.8953C93.1293 44.8985 93.6237 44.7577 94.05 44.4893C94.529 44.1669 94.9093 43.7184 95.1489 43.1936L98.5801 44.9437C98.1539 46.0211 97.3719 46.9211 96.3636 47.4947C95.232 48.1319 93.9483 48.4506 92.6495 48.4168Z" fill="#F7941D"/>
<path d="M106.617 48.4168C105.337 48.4414 104.07 48.1535 102.927 47.5781C101.886 47.0499 101.01 46.2476 100.392 45.2582C99.7877 44.2339 99.4688 43.0667 99.4688 41.8778C99.4688 40.6889 99.7877 39.5217 100.392 38.4975C101.01 37.508 101.886 36.7058 102.927 36.1776C104.07 35.6022 105.337 35.3143 106.617 35.3389C107.901 35.3157 109.171 35.6034 110.32 36.1776C111.364 36.7048 112.244 37.507 112.865 38.4975C113.468 39.5223 113.786 40.6893 113.786 41.8778C113.786 43.0664 113.468 44.2333 112.865 45.2582C112.244 46.2487 111.364 47.0509 110.32 47.5781C109.171 48.1522 107.901 48.44 106.617 48.4168ZM106.617 44.8953C107.089 44.9031 107.554 44.7823 107.963 44.5458C108.374 44.2969 108.705 43.9372 108.919 43.5082C109.174 42.9987 109.299 42.4347 109.283 41.8657C109.303 41.2998 109.178 40.7381 108.919 40.234C108.696 39.8188 108.365 39.4717 107.96 39.2297C107.555 38.9878 107.091 38.86 106.619 38.86C106.147 38.86 105.684 38.9878 105.279 39.2297C104.874 39.4717 104.542 39.8188 104.319 40.234C104.061 40.7381 103.936 41.2998 103.956 41.8657C103.94 42.4347 104.065 42.9987 104.319 43.5082C104.533 43.9377 104.864 44.2976 105.275 44.5458C105.682 44.7814 106.146 44.9022 106.617 44.8953Z" fill="#F7941D"/>
<path d="M121.64 47.6585V42.9649H119.787V41.8735H124.837V42.9649H122.981V47.6585H121.64Z" fill="#7FB138"/>
<path d="M126.908 47.6585H125.562V41.8735H126.908V47.6585ZM129.631 45.2848H126.8V44.1531H129.631V45.2848ZM129.531 41.8735H130.878V47.6585H129.531V41.8735Z" fill="#7FB138"/>
<path d="M132.246 47.6587V41.8737H134.756C135.218 41.8614 135.677 41.9466 136.103 42.1237C136.364 42.2509 136.596 42.4311 136.783 42.6527C136.971 42.8742 137.11 43.1324 137.191 43.4107C137.273 43.6889 137.296 43.9811 137.259 44.2687C137.221 44.5562 137.124 44.8328 136.973 45.0807C136.76 45.3987 136.457 45.6458 136.103 45.7904C135.676 45.9643 135.217 46.0476 134.756 46.035H132.984L133.598 45.4571V47.656L132.246 47.6587ZM133.593 45.6076L132.979 44.9705H134.675C135.007 44.9934 135.337 44.8982 135.605 44.7017C135.704 44.605 135.782 44.4896 135.836 44.3622C135.89 44.2348 135.917 44.098 135.917 43.9598C135.917 43.8215 135.89 43.6847 135.836 43.5573C135.782 43.4299 135.704 43.3145 135.605 43.2178C135.335 43.0236 135.007 42.9286 134.675 42.949H132.979L133.593 42.3119V45.6076ZM135.936 47.6587L134.476 45.5592H135.917L137.374 47.6587H135.936Z" fill="#7FB138"/>
<path d="M141.147 47.7581C140.715 47.7623 140.285 47.6867 139.881 47.535C139.507 47.3928 139.163 47.1791 138.871 46.9059C138.585 46.6379 138.358 46.3139 138.203 45.9543C137.891 45.1901 137.891 44.3341 138.203 43.5699C138.359 43.2127 138.587 42.8907 138.871 42.6237C139.162 42.3516 139.503 42.1389 139.876 41.9973C140.279 41.8444 140.707 41.7687 141.139 41.7742C141.57 41.7693 141.998 41.8431 142.402 41.992C142.774 42.1326 143.116 42.3444 143.407 42.6156C143.693 42.8834 143.92 43.2074 144.074 43.5672C144.39 44.3335 144.39 45.1934 144.074 45.9597C143.921 46.321 143.694 46.6462 143.407 46.914C143.116 47.1861 142.775 47.3981 142.402 47.5377C142.001 47.6871 141.575 47.7618 141.147 47.7581ZM141.147 46.6237C141.392 46.6258 141.635 46.5802 141.863 46.4893C142.08 46.3992 142.276 46.2667 142.44 46.0995C142.605 45.9311 142.736 45.732 142.825 45.5134C143.004 45.0305 143.004 44.4991 142.825 44.0161C142.735 43.7979 142.605 43.5989 142.44 43.4301C142.275 43.2646 142.079 43.1331 141.863 43.043C141.636 42.95 141.392 42.9034 141.147 42.9059C140.9 42.9036 140.656 42.9502 140.428 43.043C140.211 43.1311 140.015 43.2628 139.851 43.4301C139.688 43.5991 139.559 43.7981 139.472 44.0161C139.288 44.4985 139.288 45.0311 139.472 45.5134C139.558 45.7318 139.687 45.9309 139.851 46.0995C140.014 46.2684 140.21 46.4012 140.428 46.4893C140.654 46.5789 140.895 46.6245 141.139 46.6237H141.147Z" fill="#7FB138"/>
<path d="M147.896 47.7579C147.545 47.7785 147.193 47.7282 146.861 47.61C146.529 47.4917 146.224 47.308 145.965 47.0698C145.502 46.6128 145.271 45.9578 145.271 45.1047V41.8789H146.617V45.0751C146.58 45.4994 146.701 45.9225 146.957 46.2633C147.215 46.4953 147.551 46.6236 147.899 46.6236C148.247 46.6236 148.583 46.4953 148.842 46.2633C149.098 45.9225 149.219 45.4994 149.181 45.0751V41.8735H150.498V45.0993C150.498 45.9506 150.267 46.6056 149.803 47.0644C149.548 47.3015 149.248 47.485 148.92 47.6042C148.593 47.7233 148.245 47.7756 147.896 47.7579Z" fill="#7FB138"/>
<path d="M154.643 47.7583C154.212 47.762 153.783 47.6873 153.378 47.5378C153.008 47.4023 152.669 47.1926 152.384 46.9217C152.098 46.6508 151.871 46.3244 151.716 45.9626C151.403 45.1946 151.403 44.3353 151.716 43.5674C151.871 43.2082 152.099 42.8844 152.384 42.6158C152.676 42.3439 153.019 42.132 153.394 41.9921C154.257 41.6894 155.2 41.7027 156.055 42.0298C156.455 42.1928 156.811 42.4479 157.094 42.7744L156.243 43.5808C156.047 43.3685 155.81 43.1984 155.546 43.0809C155.29 42.9725 155.015 42.9176 154.738 42.9196C154.477 42.9166 154.218 42.9631 153.975 43.0567C153.751 43.1428 153.547 43.2735 153.375 43.4411C153.206 43.6076 153.074 43.8071 152.987 44.0271C152.804 44.5076 152.804 45.0385 152.987 45.519C153.076 45.7317 153.207 45.9246 153.372 46.0862C153.545 46.252 153.748 46.3834 153.97 46.4733C154.211 46.5693 154.468 46.6168 154.727 46.6131C155.282 46.6177 155.82 46.4144 156.232 46.0432L156.995 47.011C156.663 47.2546 156.29 47.4367 155.893 47.5486C155.489 47.6796 155.068 47.7502 154.643 47.7583ZM155.761 46.847V44.6749H156.987V47.0217L155.761 46.847Z" fill="#7FB138"/>
<path d="M159.566 47.6585H158.22V41.8735H159.566V47.6585ZM162.292 45.2848H159.461V44.1531H162.292V45.2848ZM162.192 41.8735H163.539V47.6585H162.192V41.8735Z" fill="#7FB138"/>
<path d="M167.262 47.6585V41.8735H170.095C170.822 41.8735 171.372 42.0106 171.738 42.2848C171.91 42.4095 172.048 42.574 172.142 42.7641C172.236 42.9543 172.282 43.1643 172.277 43.3762C172.283 43.6565 172.205 43.9322 172.05 44.1665C171.898 44.3936 171.684 44.5726 171.434 44.6827C171.154 44.8079 170.851 44.8703 170.545 44.8655L170.701 44.516C171.032 44.5096 171.36 44.5719 171.665 44.6988C171.932 44.8109 172.162 44.9976 172.325 45.2364C172.491 45.4891 172.575 45.7867 172.565 46.0886C172.573 46.3155 172.523 46.5407 172.421 46.7433C172.318 46.9459 172.166 47.1193 171.978 47.2472C171.584 47.5268 171.007 47.6665 170.246 47.6665L167.262 47.6585ZM168.595 46.6504H170.168C170.442 46.6664 170.715 46.606 170.957 46.4757C171.045 46.4179 171.117 46.3376 171.164 46.2432C171.212 46.1487 171.233 46.0434 171.226 45.938C171.232 45.8327 171.211 45.7276 171.164 45.6333C171.116 45.5389 171.045 45.4586 170.957 45.4004C170.715 45.2711 170.442 45.2115 170.168 45.2284H168.495V44.2526H169.928C170.19 44.2681 170.45 44.2093 170.679 44.0832C170.766 44.0288 170.837 43.9524 170.884 43.8616C170.932 43.7709 170.954 43.6692 170.949 43.5671C170.954 43.4652 170.932 43.3638 170.885 43.2734C170.837 43.1831 170.766 43.1071 170.679 43.0536C170.449 42.9307 170.189 42.874 169.928 42.8897H168.595V46.6504Z" fill="#7FB138"/>
<path d="M173.596 47.6585V41.8735H174.942V47.6585H173.596Z" fill="#7FB138"/>
<path d="M179.128 47.7581C178.695 47.7621 178.265 47.6864 177.859 47.535C177.486 47.3916 177.143 47.1781 176.849 46.906C176.564 46.6378 176.338 46.3139 176.184 45.9544C175.868 45.1908 175.868 44.3335 176.184 43.57C176.339 43.2128 176.566 42.8909 176.849 42.6237C177.141 42.3516 177.483 42.1388 177.857 41.9974C178.26 41.8439 178.689 41.7682 179.12 41.7743C179.55 41.7694 179.977 41.8432 180.38 41.992C180.754 42.1325 181.096 42.3444 181.388 42.6157C181.672 42.8843 181.898 43.2081 182.053 43.5673C182.369 44.3336 182.369 45.1935 182.053 45.9597C181.9 46.3204 181.673 46.6454 181.388 46.914C181.096 47.1862 180.754 47.3982 180.38 47.5377C179.98 47.6869 179.555 47.7616 179.128 47.7581ZM179.128 46.6237C179.373 46.6259 179.617 46.5802 179.844 46.4893C180.06 46.3992 180.255 46.2666 180.418 46.0995C180.584 45.9319 180.715 45.7326 180.803 45.5135C180.986 45.0311 180.986 44.4986 180.803 44.0162C180.715 43.7974 180.584 43.5982 180.418 43.4302C180.254 43.2647 180.059 43.1332 179.844 43.0431C179.617 42.95 179.374 42.9034 179.128 42.906C178.881 42.9034 178.635 42.95 178.406 43.0431C178.19 43.1318 177.994 43.2635 177.83 43.4302C177.667 43.5999 177.538 43.7987 177.45 44.0162C177.267 44.4986 177.267 45.0311 177.45 45.5135C177.538 45.7313 177.667 45.9303 177.83 46.0995C177.993 46.2679 178.189 46.4006 178.406 46.4893C178.633 46.5792 178.876 46.6248 179.12 46.6237H179.128Z" fill="#7FB138"/>
<path d="M186.074 47.758C185.649 47.7607 185.226 47.6861 184.827 47.5375C184.456 47.3992 184.117 47.187 183.831 46.9139C183.549 46.6446 183.324 46.3208 183.171 45.9623C182.858 45.1943 182.858 44.335 183.171 43.5671C183.326 43.2092 183.552 42.8857 183.833 42.6155C184.123 42.3443 184.464 42.1325 184.835 41.9918C185.234 41.8442 185.657 41.7705 186.082 41.7741C186.551 41.7694 187.016 41.8609 187.448 42.0429C187.848 42.2092 188.202 42.4714 188.477 42.8064L187.607 43.6128C187.426 43.3977 187.201 43.2235 186.947 43.1021C186.694 42.9836 186.418 42.9238 186.139 42.9273C185.884 42.9242 185.63 42.9708 185.393 43.0644C185.173 43.1511 184.973 43.2819 184.806 43.4488C184.639 43.6158 184.507 43.8152 184.421 44.0348C184.237 44.519 184.237 45.0533 184.421 45.5375C184.507 45.7578 184.638 45.9579 184.805 46.1254C184.972 46.2928 185.172 46.424 185.393 46.5107C185.631 46.6021 185.884 46.6477 186.139 46.6451C186.418 46.649 186.695 46.5882 186.947 46.4676C187.2 46.3432 187.425 46.1674 187.607 45.9515L188.477 46.758C188.201 47.0934 187.848 47.3571 187.448 47.5268C187.011 47.6977 186.543 47.7764 186.074 47.758Z" fill="#7FB138"/>
<path d="M190.72 47.6585H189.373V41.8735H190.72V47.6585ZM193.443 45.2848H190.612V44.1531H193.443V45.2848ZM193.343 41.8735H194.69V47.6585H193.343V41.8735Z" fill="#7FB138"/>
<path d="M195.299 47.6585L197.874 41.8735H199.199L201.798 47.6585H200.389L198.261 42.5509H198.8L196.672 47.6585H195.299ZM196.597 46.4165L196.936 45.4004H199.934L200.281 46.4165H196.597Z" fill="#7FB138"/>
<path d="M202.39 47.6587V41.8737H204.9C205.361 41.8614 205.82 41.9466 206.246 42.1237C206.508 42.2503 206.74 42.4301 206.928 42.6516C207.116 42.8731 207.256 43.1314 207.338 43.4099C207.42 43.6884 207.442 43.9809 207.404 44.2687C207.366 44.5564 207.268 44.833 207.116 45.0807C206.904 45.3987 206.601 45.6458 206.246 45.7904C205.819 45.9643 205.361 46.0476 204.9 46.035H203.128L203.739 45.4571V47.656L202.39 47.6587ZM203.736 45.6076L203.125 44.9705H204.822C205.154 44.9934 205.483 44.8982 205.751 44.7017C205.85 44.605 205.929 44.4896 205.982 44.3622C206.036 44.2348 206.064 44.098 206.064 43.9598C206.064 43.8215 206.036 43.6847 205.982 43.5573C205.929 43.4299 205.85 43.3145 205.751 43.2178C205.482 43.0236 205.153 42.9286 204.822 42.949H203.125L203.736 42.3119V45.6076ZM206.082 47.6587L204.622 45.5592H206.063L207.52 47.6587H206.082Z" fill="#7FB138"/>
<path d="M21.7993 35.4999C22.0686 34.9919 22.338 34.4757 22.6504 33.9488C24.4253 30.8413 26.4749 27.8574 28.4571 24.973C29.8038 22.9972 31.1908 20.9838 32.4971 18.9246C30.8193 17.7284 28.8076 17.088 26.7457 17.0938C24.6839 17.0996 22.6758 17.7512 21.0048 18.9569C21.0035 18.9721 21.0035 18.9874 21.0048 19.0026H20.9267C19.601 19.9705 18.5379 21.2529 17.8335 22.7339C17.1292 24.215 16.8059 25.8479 16.8927 27.485C16.9796 29.1221 17.474 30.7118 18.3312 32.1103C19.1883 33.5087 20.3812 34.6719 21.802 35.4945L21.7993 35.4999Z" fill="url(#paint0_radial_214_5974)"/>
<path d="M32.8154 23.5053C36.9496 21.6101 41.3989 21.4273 45.5331 21.2606C48.3584 21.145 50.9736 21.0375 53.3006 20.4542C52.9285 18.9696 52.4312 17.519 51.8139 16.1182C50.6666 16.2821 49.4842 16.3709 48.3126 16.4596C43.1738 16.8467 37.4317 17.2768 32.8154 23.5053Z" fill="url(#paint1_linear_214_5974)"/>
<path d="M21.4654 42.6668C21.2796 43.3092 21.1261 43.9383 21.0049 44.5485C24.5062 38.9544 32.1362 38.2958 39.0499 37.699C44.7058 37.2151 50.1355 36.7447 53.2004 33.8737C53.5879 32.4136 53.8519 30.9236 53.9896 29.4194C50.5503 31.0807 46.1198 31.3442 41.7674 31.6049C33.2944 32.1076 24.5304 32.6184 21.4654 42.6668Z" fill="url(#paint2_linear_214_5974)"/>
<path d="M37.167 16.4784C40.8676 14.551 44.7297 14.2607 48.1314 14.008C49.0148 13.9435 49.8524 13.879 50.6469 13.7956C49.8622 12.3981 48.9545 11.073 47.9348 9.83594C47.7139 9.87895 47.4904 9.91659 47.2668 9.95691C43.7952 10.5725 40.504 11.1612 37.167 16.4784Z" fill="url(#paint3_linear_214_5974)"/>
<path d="M17.9426 7.38958C19.3081 9.83582 20.1834 12.6342 20.6924 16.231C21.4738 15.7889 22.301 15.4329 23.1595 15.1692C23.7762 11.0858 23.7197 7.97292 22.9898 5.17991C22.5766 3.57511 21.8748 2.05857 20.9186 0.704102C18.6808 1.22294 16.5185 2.02514 14.4844 3.0912C15.8768 4.3143 17.0467 5.76852 17.9426 7.38958Z" fill="url(#paint4_radial_214_5974)"/>
<path d="M51.8723 37.7529C48.336 39.39 43.7655 39.7879 39.2731 40.1723C30.9239 40.8927 23.0218 41.5755 21.7344 49.8094C23.6439 48.3255 26.1163 47.3067 28.9658 46.8712C32.0173 46.4035 35.0931 46.6024 38.0692 46.8174C38.5701 46.8524 39.0711 46.8873 39.5693 46.9169C41.4795 47.0624 43.3979 47.0669 45.3087 46.9304C48.1178 44.365 50.3542 41.238 51.8723 37.7529Z" fill="url(#paint5_linear_214_5974)"/>
<path d="M18.1962 47.6047C18.2608 44.5026 19.0661 41.2956 20.7037 37.7149C20.1289 37.3902 19.5813 37.0199 19.0661 36.6074C16.3001 38.8117 14.5118 40.8063 13.3348 42.9864C12.2387 44.9443 11.7688 47.1899 11.9882 49.4219C14.1252 50.8565 16.457 51.9781 18.9126 52.7526C18.4064 51.0844 18.1646 49.3475 18.1962 47.6047Z" fill="url(#paint6_radial_214_5974)"/>
<path d="M11.215 11.9598C13.4774 13.613 15.4327 15.8092 17.4096 18.9356C17.727 18.5672 18.0651 18.2172 18.4222 17.8872C17.9886 13.949 17.1645 11.0404 15.799 8.58879C14.9083 6.96875 13.6926 5.54941 12.2277 4.41943C10.0472 5.8481 8.08436 7.58275 6.39941 9.56997C8.13122 10.082 9.76068 10.8907 11.215 11.9598Z" fill="url(#paint7_radial_214_5974)"/>
<path d="M25.3759 4.55914C26.1408 7.48387 26.2539 10.6613 25.7206 14.6801C26.0654 14.6505 26.4155 14.6317 26.7683 14.6317C27.4204 14.6312 28.0716 14.6825 28.7155 14.7849C30.0353 11.2661 30.6008 8.41666 30.512 5.70967C30.4643 3.75619 29.9891 1.83677 29.1195 0.0860235C28.4354 0.0349482 27.7486 0 27.0511 0C25.8802 0.001928 24.7107 0.0791531 23.5498 0.231187C24.3639 1.57865 24.9789 3.03632 25.3759 4.55914Z" fill="url(#paint8_radial_214_5974)"/>
<path d="M11.1659 41.8197C12.7819 38.8627 15.249 36.524 17.2932 34.8708C17.0535 34.5831 16.8218 34.2874 16.6091 33.981C13.0674 34.6584 10.5222 35.5939 8.44032 37.0159C6.67135 38.1763 5.27005 39.8155 4.40039 41.7417C5.81324 43.8976 7.52526 45.8426 9.48532 47.5186C9.63268 45.5212 10.2057 43.5782 11.1659 41.8197Z" fill="url(#paint9_radial_214_5974)"/>
<path d="M14.4681 28.1183C14.4331 27.7392 14.4089 27.3548 14.4089 26.9677C14.4089 26.9166 14.4089 26.8656 14.4089 26.8145C11.6429 24.2446 9.29159 22.7016 6.84878 21.8467C4.84107 21.1102 2.66313 20.9674 0.576134 21.4355C0.191277 23.2654 -0.00278267 25.1302 -0.00292969 27C-0.00292969 27.5107 0.0159023 28.0161 0.0428352 28.5188C1.83646 27.543 3.82183 26.9696 5.86037 26.8387C8.47286 26.6586 11.1796 27.0618 14.4681 28.1183Z" fill="url(#paint10_radial_214_5974)"/>
<path d="M7.05103 34.976C9.26222 33.4813 11.872 32.4545 15.3652 31.7179C15.2548 31.4491 15.1551 31.1937 15.0636 30.9249C11.4519 29.6238 8.64814 29.1158 6.03296 29.2959C3.99204 29.4126 2.0217 30.0827 0.333984 31.234C0.774048 34.017 1.65117 36.7132 2.93301 39.2233C3.98859 37.5322 5.39228 36.0844 7.05103 34.976Z" fill="url(#paint11_radial_214_5974)"/>
<path d="M39.4167 49.3658C38.913 49.3362 38.4067 49.3012 37.9003 49.2663C35.0616 49.0727 32.1232 48.8711 29.3411 49.2985C26.0472 49.8012 23.2973 51.2421 21.7002 53.2797C21.7298 53.3496 21.7594 53.4168 21.7918 53.4867C23.5243 53.8272 25.2859 53.9992 27.0518 54.0002C32.3821 54.0083 37.5949 52.4365 42.0291 49.484C41.1323 49.4652 40.2543 49.4195 39.4167 49.3658Z" fill="url(#paint12_linear_214_5974)"/>
<path d="M7.66484 19.5213C10.0457 20.3546 12.3054 21.7202 14.8021 23.86C15.0525 22.92 15.4141 22.0131 15.8794 21.1584C13.8863 17.8116 11.9768 15.5616 9.76562 13.946C8.28518 12.846 6.58346 12.0793 4.77764 11.6987C3.26556 13.8835 2.08569 16.2795 1.27637 18.8089C3.43239 18.5476 5.61976 18.7915 7.66484 19.5213Z" fill="url(#paint13_radial_214_5974)"/>
<path d="M39.7285 10.0647C41.8508 8.59158 43.9597 8.07276 45.9527 7.69911C44.5405 6.32139 42.9817 5.10179 41.3041 4.06201C40.9596 6.10586 40.4323 8.11479 39.7285 10.0647Z" fill="url(#paint14_linear_214_5974)"/>
<path d="M32.9817 5.63444C33.0733 8.61563 32.4915 11.6963 31.1152 15.4248C32.0573 15.7786 32.952 16.2472 33.7789 16.8199C34.3014 15.9301 34.8051 15.0323 35.2764 14.1318C36.6527 11.4705 38.406 7.35757 39.0066 2.78499C36.78 1.691 34.4127 0.909403 31.9717 0.462402C32.5888 2.11987 32.93 3.86698 32.9817 5.63444Z" fill="url(#paint15_radial_214_5974)"/>
<path d="M45.6402 23.7206C38.8558 23.9894 31.8479 24.2851 26.7656 32.1184C31.1665 29.7582 36.5907 29.4303 41.6326 29.1346C46.5936 28.8389 51.1103 28.57 54.0998 26.4921C54.0793 25.2743 53.9776 24.0593 53.7955 22.855C51.1776 23.5055 48.39 23.6077 45.6402 23.7206Z" fill="url(#paint16_linear_214_5974)"/>
</g>
<defs>
<radialGradient id="paint0_radial_214_5974" cx="0" cy="0" r="1" gradientUnits="userSpaceOnUse" gradientTransform="translate(23.4422 26.6209) scale(50.553 50.457)">
<stop offset="0.17" stop-color="#FFF200"/>
<stop offset="0.58" stop-color="#F7941D"/>
</radialGradient>
<linearGradient id="paint1_linear_214_5974" x1="66.3468" y1="32.2445" x2="25.8482" y2="11.2193" gradientUnits="userSpaceOnUse">
<stop stop-color="#63A049"/>
<stop offset="0.28" stop-color="#79AF3A"/>
<stop offset="0.62" stop-color="#8FBE2B"/>
<stop offset="0.85" stop-color="#97C325"/>
</linearGradient>
<linearGradient id="paint2_linear_214_5974" x1="58.3015" y1="47.742" x2="17.8029" y2="26.7168" gradientUnits="userSpaceOnUse">
<stop stop-color="#63A049"/>
<stop offset="0.28" stop-color="#79AF3A"/>
<stop offset="0.62" stop-color="#8FBE2B"/>
<stop offset="0.85" stop-color="#97C325"/>
</linearGradient>
<linearGradient id="paint3_linear_214_5974" x1="69.1228" y1="26.8978" x2="28.6215" y2="5.87252" gradientUnits="userSpaceOnUse">
<stop stop-color="#63A049"/>
<stop offset="0.28" stop-color="#79AF3A"/>
<stop offset="0.62" stop-color="#8FBE2B"/>
<stop offset="0.85" stop-color="#97C325"/>
</linearGradient>
<radialGradient id="paint4_radial_214_5974" cx="0" cy="0" r="1" gradientUnits="userSpaceOnUse" gradientTransform="translate(23.4423 26.6208) scale(50.5532 50.457)">
<stop offset="0.17" stop-color="#FFF200"/>
<stop offset="0.58" stop-color="#F7941D"/>
</radialGradient>
<linearGradient id="paint5_linear_214_5974" x1="55.3763" y1="53.3766" x2="14.8749" y2="32.354" gradientUnits="userSpaceOnUse">
<stop stop-color="#63A049"/>
<stop offset="0.28" stop-color="#79AF3A"/>
<stop offset="0.62" stop-color="#8FBE2B"/>
<stop offset="0.85" stop-color="#97C325"/>
</linearGradient>
<radialGradient id="paint6_radial_214_5974" cx="0" cy="0" r="1" gradientUnits="userSpaceOnUse" gradientTransform="translate(23.4427 26.6209) scale(50.553 50.457)">
<stop offset="0.17" stop-color="#FFF200"/>
<stop offset="0.58" stop-color="#F7941D"/>
</radialGradient>
<radialGradient id="paint7_radial_214_5974" cx="0" cy="0" r="1" gradientUnits="userSpaceOnUse" gradientTransform="translate(23.4425 26.621) scale(50.5529 50.457)">
<stop offset="0.17" stop-color="#FFF200"/>
<stop offset="0.58" stop-color="#F7941D"/>
</radialGradient>
<radialGradient id="paint8_radial_214_5974" cx="0" cy="0" r="1" gradientUnits="userSpaceOnUse" gradientTransform="translate(23.4421 26.621) scale(50.553 50.457)">
<stop offset="0.17" stop-color="#FFF200"/>
<stop offset="0.58" stop-color="#F7941D"/>
</radialGradient>
<radialGradient id="paint9_radial_214_5974" cx="0" cy="0" r="1" gradientUnits="userSpaceOnUse" gradientTransform="translate(23.4419 26.6207) scale(50.553 50.457)">
<stop offset="0.17" stop-color="#FFF200"/>
<stop offset="0.58" stop-color="#F7941D"/>
</radialGradient>
<radialGradient id="paint10_radial_214_5974" cx="0" cy="0" r="1" gradientUnits="userSpaceOnUse" gradientTransform="translate(23.4421 26.6209) scale(50.553 50.457)">
<stop offset="0.17" stop-color="#FFF200"/>
<stop offset="0.58" stop-color="#F7941D"/>
</radialGradient>
<radialGradient id="paint11_radial_214_5974" cx="0" cy="0" r="1" gradientUnits="userSpaceOnUse" gradientTransform="translate(23.4424 26.6211) scale(50.553 50.4569)">
<stop offset="0.17" stop-color="#FFF200"/>
<stop offset="0.58" stop-color="#F7941D"/>
</radialGradient>
<linearGradient id="paint12_linear_214_5974" x1="51.1863" y1="61.4518" x2="10.685" y2="40.4292" gradientUnits="userSpaceOnUse">
<stop stop-color="#63A049"/>
<stop offset="0.28" stop-color="#79AF3A"/>
<stop offset="0.62" stop-color="#8FBE2B"/>
<stop offset="0.85" stop-color="#97C325"/>
</linearGradient>
<radialGradient id="paint13_radial_214_5974" cx="0" cy="0" r="1" gradientUnits="userSpaceOnUse" gradientTransform="translate(23.4421 26.6208) scale(50.553 50.457)">
<stop offset="0.17" stop-color="#FFF200"/>
<stop offset="0.58" stop-color="#F7941D"/>
</radialGradient>
<linearGradient id="paint14_linear_214_5974" x1="71.1888" y1="22.9168" x2="30.6902" y2="1.89156" gradientUnits="userSpaceOnUse">
<stop stop-color="#63A049"/>
<stop offset="0.06" stop-color="#72AA3F"/>
<stop offset="0.14" stop-color="#83B533"/>
<stop offset="0.26" stop-color="#8EBD2B"/>
<stop offset="0.41" stop-color="#95C226"/>
<stop offset="0.85" stop-color="#97C325"/>
</linearGradient>
<radialGradient id="paint15_radial_214_5974" cx="0" cy="0" r="1" gradientUnits="userSpaceOnUse" gradientTransform="translate(23.442 26.621) scale(50.5531 50.457)">
<stop offset="0.17" stop-color="#FFF200"/>
<stop offset="0.58" stop-color="#F7941D"/>
</radialGradient>
<linearGradient id="paint16_linear_214_5974" x1="62.7749" y1="39.1238" x2="22.2763" y2="18.1012" gradientUnits="userSpaceOnUse">
<stop stop-color="#63A049"/>
<stop offset="0.28" stop-color="#79AF3A"/>
<stop offset="0.62" stop-color="#8FBE2B"/>
<stop offset="0.85" stop-color="#97C325"/>
</linearGradient>
<clipPath id="clip0_214_5974">
<rect width="244.373" height="54" fill="white"/>
</clipPath>
</defs>
</svg>
