<svg width="50" height="50" viewBox="0 0 50 50" fill="none" xmlns="http://www.w3.org/2000/svg">
<path d="M20.5523 17.8606L13.896 29.3897C10.7121 34.9043 14.692 41.7976 21.0597 41.7976C27.4275 41.7976 31.4074 34.9043 28.2235 29.3897L21.5672 17.8606C21.3417 17.47 20.7778 17.47 20.5523 17.8606Z" stroke="white" stroke-width="1.46484" stroke-miterlimit="10" stroke-linecap="round" stroke-linejoin="round"/>
<path d="M21.0596 26.6865V43.6683" stroke="white" stroke-width="1.46484" stroke-miterlimit="10" stroke-linecap="round" stroke-linejoin="round"/>
<path d="M18.6455 29.6367L21.0593 32.0505L23.473 29.6367" stroke="white" stroke-width="1.46484" stroke-miterlimit="10" stroke-linecap="round" stroke-linejoin="round"/>
<path d="M18.002 34.4907L21.0599 37.5486L24.1178 34.4907" stroke="white" stroke-width="1.46484" stroke-miterlimit="10" stroke-linecap="round" stroke-linejoin="round"/>
<path d="M24.6973 3.36118V6.66577C24.6973 7.0147 24.8834 7.33706 25.1855 7.51147L28.0474 9.16372C28.3495 9.33813 28.7218 9.33813 29.0239 9.16372L31.8857 7.51147C32.1879 7.33706 32.374 7.0146 32.374 6.66577V3.36118C32.374 3.01226 32.1879 2.68989 31.8857 2.51548L29.024 0.863232C28.7219 0.688818 28.3496 0.688818 28.0475 0.863232L25.1856 2.51548C24.8834 2.68989 24.6973 3.01235 24.6973 3.36118Z" stroke="white" stroke-width="1.46484" stroke-miterlimit="10" stroke-linecap="round" stroke-linejoin="round"/>
<path d="M4.9502 11.629V16.8778C4.9502 17.2268 5.13633 17.5491 5.43848 17.7235L9.98408 20.3479C10.2862 20.5224 10.6585 20.5224 10.9606 20.3479L15.5062 17.7235C15.8084 17.5491 15.9945 17.2267 15.9945 16.8778V11.629C15.9945 11.2801 15.8084 10.9577 15.5062 10.7833L10.9606 8.15889C10.6585 7.98447 10.2862 7.98447 9.98408 8.15889L5.43848 10.7833C5.13633 10.9577 4.9502 11.2802 4.9502 11.629Z" stroke="white" stroke-width="1.46484" stroke-miterlimit="10" stroke-linecap="round" stroke-linejoin="round"/>
<path d="M7.87988 15.4683V13.0385C7.87988 12.8641 7.97295 12.7029 8.12402 12.6157L10.2282 11.4009C10.3793 11.3136 10.5654 11.3136 10.7165 11.4009L12.8207 12.6157C12.9718 12.7029 13.0648 12.8641 13.0648 13.0385V15.4683C13.0648 15.6427 12.9718 15.804 12.8207 15.8912L10.7165 17.106C10.5654 17.1932 10.3793 17.1932 10.2282 17.106L8.12402 15.8912C7.97295 15.804 7.87988 15.6427 7.87988 15.4683Z" stroke="white" stroke-width="1.46484" stroke-miterlimit="10" stroke-linecap="round" stroke-linejoin="round"/>
<path d="M29.7021 13.8821V21.6161C29.7021 21.965 29.8883 22.2874 30.1904 22.4618L36.8883 26.3288C37.1904 26.5032 37.5627 26.5032 37.8648 26.3288L44.5627 22.4618C44.8648 22.2874 45.051 21.9649 45.051 21.6161V13.8821C45.051 13.5332 44.8648 13.2108 44.5627 13.0364L37.8648 9.16938C37.5627 8.99497 37.1904 8.99497 36.8883 9.16938L30.1904 13.0364C29.8883 13.2108 29.7021 13.5332 29.7021 13.8821Z" stroke="white" stroke-width="1.46484" stroke-miterlimit="10" stroke-linecap="round" stroke-linejoin="round"/>
<path d="M32.6318 19.5312V20.2067C32.6318 20.3811 32.7249 20.5424 32.876 20.6296L37.1323 23.087C37.2834 23.1742 37.4695 23.1742 37.6206 23.087L41.877 20.6296C42.028 20.5424 42.1211 20.3811 42.1211 20.2067V15.2919C42.1211 15.1175 42.028 14.9562 41.877 14.869L37.6206 12.4116C37.4695 12.3244 37.2834 12.3244 37.1323 12.4116L32.876 14.869C32.7249 14.9562 32.6318 15.1175 32.6318 15.2919V16.1133" stroke="white" stroke-width="1.46484" stroke-miterlimit="10" stroke-linecap="round" stroke-linejoin="round"/>
<path d="M4.9502 33.3008V38.8751C4.9502 39.7474 5.41553 40.5533 6.1709 40.9895L19.9425 48.9405C20.6979 49.3767 21.6285 49.3767 22.3839 48.9405L29.3742 44.9046" stroke="white" stroke-width="1.46484" stroke-miterlimit="10" stroke-linecap="round" stroke-linejoin="round"/>
<path d="M8.51963 19.5027L6.1709 20.8587C5.41553 21.2949 4.9502 22.1008 4.9502 22.9731V29.8828" stroke="white" stroke-width="1.46484" stroke-miterlimit="10" stroke-linecap="round" stroke-linejoin="round"/>
<path d="M29.7015 17.1327L22.3835 12.9077C21.6281 12.4715 20.6975 12.4715 19.9421 12.9077L15.9941 15.187" stroke="white" stroke-width="1.46484" stroke-miterlimit="10" stroke-linejoin="round"/>
<path d="M32.334 43.1955L36.1552 40.9893C36.9105 40.5532 37.3759 39.7472 37.3759 38.875V26.4597" stroke="white" stroke-width="1.46484" stroke-miterlimit="10" stroke-linecap="round" stroke-linejoin="round"/>
</svg>
