<svg width="50" height="50" viewBox="0 0 50 50" fill="none" xmlns="http://www.w3.org/2000/svg">
<path d="M49.0777 16.0147C48.6731 16.0147 48.3453 16.3427 48.3453 16.7472V24.5841C48.3453 25.743 47.4025 26.6857 46.2437 26.6857H44.2086V16.7472C44.2086 16.3427 43.8808 16.0147 43.4762 16.0147C43.0716 16.0147 42.7438 16.3427 42.7438 16.7472V26.6857H40.7059C39.5485 26.6857 38.607 25.743 38.607 24.5841V16.7472C38.607 16.3427 38.2792 16.0147 37.8746 16.0147C37.47 16.0147 37.1422 16.3427 37.1422 16.7472V24.5841C37.1422 26.5507 38.7408 28.1506 40.7059 28.1506H42.7438V33.5575H41.1606C40.4831 33.5575 39.9318 34.1088 39.9318 34.7863V35.6732C38.2896 34.1069 36.0426 32.9776 33.7772 32.13C33.7273 32.1044 33.6742 32.0846 33.6186 32.0709C32.4867 31.654 31.3538 31.3066 30.2928 31.0093C30.2777 31.0044 30.2623 31.0004 30.2469 30.9965C29.3783 30.7538 28.5586 30.5443 27.8285 30.358L27.5579 30.2889C27.4989 30.2737 27.4597 30.26 27.4346 30.2496C27.4345 30.2454 27.4344 30.2407 27.4344 30.2356V28.4368C29.6335 26.6767 31.311 24.1798 31.8315 21.7672C33.4578 21.2284 34.6166 20.1132 35.0414 18.6513C35.3714 17.516 35.1897 16.3073 34.5646 15.2638C36.1393 14.6299 37.1883 13.8211 37.7477 12.8271C38.0987 12.2024 38.1478 11.6653 37.8934 11.2307C37.4685 10.5045 36.4789 10.5045 35.6838 10.5045H32.8322L30.9006 3.68555C30.2657 1.44668 28.6481 0 26.7797 0H16.3309C14.4624 0 12.8449 1.44668 12.2099 3.68584L10.2781 10.5046H7.42657C6.63174 10.5046 5.64249 10.5046 5.21739 11.2312C4.96309 11.6659 5.01192 12.2029 5.3629 12.8274C5.92217 13.8213 6.9712 14.6301 8.5459 15.2638C7.92081 16.3072 7.73917 17.5157 8.06915 18.6507C8.49405 20.1123 9.65264 21.2272 11.2788 21.7663C11.7992 24.1787 13.4769 26.6759 15.676 28.4363V30.2355C15.676 30.2408 15.6759 30.2457 15.6758 30.2502C15.6512 30.2604 15.6129 30.2738 15.5558 30.2887L15.2671 30.3625C14.5422 30.5478 13.739 30.7537 12.895 30.9884C12.8664 30.9943 12.8387 31.0024 12.8113 31.0116C11.739 31.3113 10.602 31.6601 9.46817 32.077C9.43213 32.0872 9.39727 32.1 9.36368 32.1153C8.33477 32.4977 7.31114 32.9361 6.34551 33.4484C2.7378 35.3628 0.816021 37.8713 0.6336 40.904L0.198248 48.1173C0.169635 48.5959 0.191217 49.1391 0.568268 49.5395C0.950494 49.9453 1.51485 50 2.01641 50H41.1413C41.1446 50 41.1478 49.9995 41.1511 49.9995C41.1543 49.9995 41.1575 50 41.1607 50H45.7917C46.4692 50 47.0205 49.4476 47.0205 48.7685V34.7863C47.0205 34.1088 46.4692 33.5575 45.7917 33.5575H44.2087V28.1506H46.2438C48.2104 28.1506 49.8103 26.5507 49.8103 24.5841V16.7472C49.8102 16.3427 49.4822 16.0147 49.0777 16.0147ZM30.7981 32.6805C31.4251 32.8678 32.0678 33.073 32.7108 33.3001V39.9854L30.7981 39.9922V32.6805ZM33.635 18.2425C33.4036 19.0384 32.8262 19.6892 32.0017 20.1138V16.0405C32.399 15.9502 32.776 15.8534 33.1337 15.7506C33.6968 16.5104 33.8803 17.3983 33.635 18.2425ZM12.6441 7.52685H20.1077C20.5123 7.52685 20.8401 7.19893 20.8401 6.79443C20.8401 6.38994 20.5123 6.06201 20.1077 6.06201H13.0591L13.619 4.08525C14.0706 2.49346 15.135 1.46484 16.3309 1.46484H26.7797C27.9756 1.46484 29.04 2.49346 29.4915 4.08506L30.0516 6.06201H23.4937C23.0891 6.06201 22.7612 6.38994 22.7612 6.79443C22.7612 7.19893 23.0891 7.52685 23.4937 7.52685H30.4665L31.3101 10.5046H11.8006L12.6441 7.52685ZM11.1089 20.1128C10.2844 19.6881 9.70704 19.0375 9.47569 18.2419C9.23038 17.3979 9.41378 16.5103 9.97676 15.7506C10.3346 15.8535 10.7115 15.9502 11.1089 16.0405V20.1128ZM6.63965 12.1095C6.61846 12.0718 6.60108 12.0383 6.58682 12.0088C6.84659 11.9694 35.6839 11.9694 35.6839 11.9694C35.8469 11.9694 36.2638 11.9694 36.5237 12.0086C36.5095 12.0381 36.4922 12.0715 36.471 12.1091C35.6415 13.5831 32.3808 15.3789 21.5553 15.5654C10.7297 15.3789 7.46895 13.5831 6.63965 12.1095ZM12.5737 20.2496V16.3301C14.9636 16.7387 17.9393 16.9687 21.5428 17.0303C21.5469 17.0303 21.5511 17.0304 21.5553 17.0304C21.5595 17.0304 21.5637 17.0304 21.5678 17.0303C25.1713 16.9686 28.147 16.7387 30.5369 16.3301V20.2497C30.5369 23.5187 27.3574 27.5636 23.7316 28.906C22.9165 29.2095 22.2249 29.3508 21.5553 29.3508C20.8857 29.3508 20.1941 29.2095 19.3777 28.9056C15.7532 27.5626 12.5737 23.5178 12.5737 20.2496ZM25.9696 29.45V30.2357C25.9696 32.6714 23.9894 34.6529 21.5553 34.6529C19.1212 34.6529 17.1409 32.6714 17.1409 30.2357V29.4498C17.6985 29.7786 18.2764 30.0596 18.8679 30.2787C19.8518 30.6449 20.7057 30.8156 21.5554 30.8156C22.4051 30.8156 23.259 30.645 24.2417 30.2792C24.8334 30.06 25.4116 29.7789 25.9696 29.45ZM10.3996 33.298C11.0416 33.072 11.6834 32.8678 12.3123 32.6806V39.9828H10.3996V33.298ZM8.93477 40.1245C8.20157 40.4168 7.68135 41.1325 7.68135 41.9687V48.5352H2.01641C1.83331 48.5352 1.72325 48.5242 1.65977 48.5138C1.6543 48.4556 1.65137 48.3591 1.66055 48.2053L2.0959 40.9922C2.24776 38.4688 3.86241 36.4245 7.03223 34.7425C7.64297 34.4185 8.28301 34.1256 8.93487 33.8567L8.93477 40.1245ZM33.967 48.5352H9.1462V41.9688C9.1462 41.6814 9.37999 41.4478 9.66719 41.4478H19.5365C19.9411 41.4478 20.269 41.1198 20.269 40.7153C20.269 40.3108 19.9411 39.9829 19.5365 39.9829H13.7772V32.2654C14.4311 32.0886 15.0559 31.9285 15.6299 31.7818L15.866 31.7214C16.5256 34.2478 18.8263 36.1178 21.5553 36.1178C24.2846 36.1178 26.5855 34.2477 27.2447 31.7207L27.4662 31.7773C28.038 31.9233 28.668 32.0843 29.3334 32.2646V39.9975L23.2254 39.983C22.8208 39.9845 22.4941 40.3135 22.4955 40.718C22.497 41.1216 22.8245 41.4478 23.2278 41.4478C23.2287 41.4478 23.2319 41.4839 23.2328 41.4839L33.4463 41.4478H33.4483C33.5846 41.4478 33.7138 41.5019 33.8124 41.6C33.9121 41.6994 33.9671 41.8304 33.9671 41.9689V48.5352H33.967ZM39.9318 48.5352H35.4318V41.9688C35.4318 41.4378 35.2237 40.9382 34.846 40.5619C34.6509 40.3676 34.4231 40.2209 34.1757 40.1232V33.859C36.5104 34.8229 38.6877 36.1134 39.9318 37.8995V48.5352ZM45.5556 48.5352H41.3967V45.6102H45.5556V48.5352ZM45.5556 44.1453H41.3967V41.8026H45.5556V44.1453ZM45.5556 35.0224V40.3378H41.3967V35.0224H45.5556Z" fill="white"/>
</svg>
