<svg width="50" height="50" viewBox="0 0 50 50" fill="none" xmlns="http://www.w3.org/2000/svg">
<path d="M9.82551 20.3193L7.37444 24.5646C6.52493 26.0361 6.52493 27.849 7.37444 29.3205L12.4452 38.1034" stroke="white" stroke-width="1.46484" stroke-miterlimit="10" stroke-linecap="round" stroke-linejoin="round"/>
<path d="M17.4361 24.7163L12.4529 33.3476C10.6223 36.5182 12.9105 40.4813 16.5716 40.4813H23.5352V41.9433C23.5352 43.2483 25.113 43.9019 26.0359 42.9791L31.8938 37.1212C32.4659 36.5491 32.4659 35.6217 31.8938 35.0496L26.0359 29.1917C25.1718 28.3276 23.7334 28.8458 23.5539 29.9867V31.6924H15.9457C14.8181 31.6924 14.1133 30.4717 14.6772 29.4951" stroke="white" stroke-width="1.46484" stroke-miterlimit="10" stroke-linecap="round" stroke-linejoin="round"/>
<path d="M28.5332 40.4814H33.4353C35.1344 40.4814 36.7044 39.575 37.5539 38.1035L42.6247 29.3206" stroke="white" stroke-width="1.46484" stroke-miterlimit="10" stroke-linecap="round" stroke-linejoin="round"/>
<path d="M28.5364 31.6923H38.5029C42.164 31.6923 44.4522 27.7291 42.6216 24.5585L39.1398 18.5278L40.4058 17.7969C41.5359 17.1443 41.3131 15.4511 40.0524 15.1134L32.0504 12.9692C31.269 12.7598 30.4657 13.2236 30.2564 14.0051L28.1122 22.0071C27.7959 23.1875 28.9639 24.174 30.0416 23.7591L31.5188 22.9062L35.3229 29.4952C35.8866 30.4718 35.1819 31.6925 34.0543 31.6925" stroke="white" stroke-width="1.46484" stroke-miterlimit="10" stroke-linecap="round" stroke-linejoin="round"/>
<path d="M36.6401 14.1992L34.1891 9.95386C33.3396 8.48237 31.7694 7.57593 30.0704 7.57593H19.9287" stroke="white" stroke-width="1.46484" stroke-miterlimit="10" stroke-linecap="round" stroke-linejoin="round"/>
<path d="M29.0278 18.5911L24.0446 9.95999C22.2141 6.78938 17.6378 6.78938 15.8072 9.95999L12.3254 15.9906L11.0594 15.2597C9.92921 14.6072 8.57422 15.6468 8.91202 16.9074L11.0562 24.9095C11.2655 25.6909 12.0688 26.1547 12.8502 25.9453L20.8523 23.8012C22.0326 23.4849 22.303 21.9802 21.4047 21.2543L19.9275 20.4015L23.7316 13.8125C24.2954 12.836 25.705 12.836 26.2689 13.8125" stroke="white" stroke-width="1.46484" stroke-miterlimit="10" stroke-linecap="round" stroke-linejoin="round"/>
<path d="M23.5352 40.4813V41.9433C23.5352 43.2483 25.113 43.9019 26.0358 42.9791L31.8938 37.1212C32.4658 36.5491 32.4658 35.6217 31.8938 35.0496L26.0358 29.1917C25.1718 28.3276 23.7334 28.8458 23.5539 29.9867V31.6924" stroke="white" stroke-width="1.46484" stroke-miterlimit="10" stroke-linecap="round" stroke-linejoin="round"/>
<path d="M6.83682 8.9082C3.03945 13.1913 0.732422 18.8257 0.732422 24.9999C0.732422 31.174 3.03945 36.8085 6.83682 41.0916" stroke="white" stroke-width="1.46484" stroke-miterlimit="10" stroke-linecap="round" stroke-linejoin="round"/>
<path d="M8.9082 43.1632C13.1913 46.9605 18.8258 49.2676 24.9999 49.2676C38.4025 49.2676 49.2675 38.4026 49.2675 25C49.2675 11.5974 38.4025 0.732422 24.9999 0.732422C18.8258 0.732422 13.1913 3.03945 8.9082 6.83682" stroke="white" stroke-width="1.46484" stroke-miterlimit="10" stroke-linecap="round" stroke-linejoin="round"/>
</svg>
