<svg width="148" height="149" viewBox="0 0 148 149" fill="none" xmlns="http://www.w3.org/2000/svg">
<path d="M87.4736 74.8711C96.3758 75.0876 104.355 78.5866 111.767 81.8437C116.835 84.0714 121.521 86.1275 126.112 87.1147C126.744 84.1529 127.113 81.1715 127.228 78.1985C125.068 77.5009 122.916 76.643 120.784 75.7908C111.421 72.0443 100.955 67.8646 87.4736 74.8739V74.8711Z" fill="url(#paint0_linear_214_5868)"/>
<path d="M51.0216 98.8636C50.1384 99.834 49.3312 100.813 48.583 101.803C59.5328 94.9512 73.5372 100.357 86.2253 105.26C96.5929 109.268 106.539 113.104 114.4 110.683C116.318 108.461 118.065 106.05 119.623 103.465C112.15 103.437 104.131 100.096 96.2582 96.8104C80.9262 90.4115 65.071 83.796 51.0272 98.8608L51.0216 98.8636Z" fill="url(#paint1_linear_214_5868)"/>
<path d="M101.178 66.2305C109.346 66.0195 116.383 68.8266 122.58 71.3046C124.191 71.9487 125.718 72.559 127.187 73.0906C127.007 69.946 126.559 66.8352 125.831 63.7919C125.403 63.6709 124.979 63.55 124.554 63.429C117.919 61.5277 111.63 59.736 101.181 66.2305H101.178Z" fill="url(#paint2_linear_214_5868)"/>
<path d="M108.715 116.328C101.087 116.176 92.7109 112.944 84.4837 109.763C69.1855 103.85 54.7057 98.2644 45.3535 111.661C49.9888 110.685 55.2092 111.02 60.5983 112.702C66.3672 114.502 71.5931 117.517 76.6447 120.431C77.497 120.921 78.3464 121.413 79.1987 121.897C82.7736 123.927 86.056 125.612 89.2738 126.853C96.3674 124.763 103.011 121.196 108.718 116.328H108.715Z" fill="url(#paint3_linear_214_5868)"/>
<path d="M76.8106 126.096C75.9499 125.607 75.0893 125.112 74.2314 124.614C69.4048 121.832 64.4151 118.955 59.1582 117.312C52.9337 115.369 46.8554 115.543 42.2932 117.762C42.2848 117.908 42.282 118.055 42.2764 118.201C44.9822 120.254 47.9186 122.082 51.0857 123.632C60.8233 128.394 71.309 129.888 81.3053 128.549C79.7443 127.744 78.2479 126.912 76.8134 126.099L76.8106 126.096Z" fill="url(#paint4_linear_214_5868)"/>
<path d="M111.21 57.1228C116.211 56.3522 120.365 57.2522 124.191 58.3098C122.897 54.6786 121.209 51.1852 119.15 47.9028C116.678 51.3821 113.924 54.4677 111.21 57.1228Z" fill="url(#paint5_linear_214_5868)"/>
<path d="M57.7775 86.5271C58.6888 85.8605 59.6283 85.1938 60.6099 84.5244C66.4097 80.5782 72.5807 77.0848 78.5493 73.7068C82.6333 71.3948 86.7905 69.0321 90.8492 66.5204C88.9225 62.9736 86.0029 60.1609 82.3661 58.3804C78.5802 56.5297 74.4821 56.0346 70.6147 56.6984C70.6034 56.7266 70.595 56.7547 70.5837 56.7828L70.4403 56.7266C64.5814 57.7869 59.2795 61.5194 56.4696 67.2685C53.4403 73.4649 53.9551 80.8004 57.7775 86.5271Z" fill="url(#paint6_radial_214_5868)"/>
<path d="M75.2075 33.7016C75.4972 39.1835 74.6281 44.8624 72.4258 51.6381C74.164 51.5313 75.9248 51.61 77.6771 51.8885C82.2758 45.228 84.8607 39.6954 85.9802 34.1488C86.6524 30.827 86.703 27.5362 86.1939 24.4844C81.7555 23.4606 77.2692 23.0274 72.8308 23.1568C74.1809 26.3773 75.0107 29.9523 75.2075 33.7016Z" fill="url(#paint7_radial_214_5868)"/>
<path d="M41.0224 104.753C43.8042 99.3417 47.9867 94.3858 53.9468 89.486C53.207 88.4116 52.5714 87.2865 52.0229 86.1277C45.2612 87.6353 40.4008 89.6098 36.4518 92.4394C32.635 95.1733 29.8645 98.7876 28.5312 102.607C31.0289 106.928 34.1482 110.913 37.8385 114.423C38.3701 111.147 39.4248 107.864 41.0252 104.751L41.0224 104.753Z" fill="url(#paint8_radial_214_5868)"/>
<path d="M59.4425 35.9633C61.9964 40.8208 63.5406 46.3731 64.3084 53.568C65.1832 53.1911 66.0776 52.8648 66.9917 52.592C69.6216 45.2818 70.6764 39.4511 70.3867 33.9551C70.187 30.1692 69.2503 26.6111 67.7202 23.5537C62.6489 24.1978 57.7014 25.5704 53.0352 27.6181C55.5497 29.9048 57.7436 32.7259 59.4425 35.9633Z" fill="url(#paint9_radial_214_5868)"/>
<path d="M90.7145 35.1053C89.5416 40.9135 87.0045 46.6093 82.6055 53.2275C83.2383 53.4722 83.8684 53.7394 84.4872 54.0432C85.6432 54.6086 86.7429 55.2583 87.778 55.9868C93.125 50.9267 96.5621 46.3871 98.7475 41.5464C100.404 37.8758 101.2 34.0534 101.144 30.4447C99.9879 29.7668 98.8094 29.1143 97.5831 28.5152C95.496 27.4942 93.3725 26.6419 91.2292 25.9163C91.4964 28.8893 91.3417 31.9945 90.7117 35.1053H90.7145Z" fill="url(#paint10_radial_214_5868)"/>
<path d="M33.6367 88.5128C39.0118 84.665 45.3713 82.6961 50.3891 81.5429C50.2147 80.8285 50.0629 80.1084 49.9532 79.3828C43.1408 77.5348 37.8529 77.0173 32.9814 77.7064C28.6161 78.3252 24.7092 80.055 21.8037 82.5555C22.4281 87.5762 23.767 92.4759 25.7696 97.1028C27.6344 93.8569 30.3121 90.8923 33.6367 88.51V88.5128Z" fill="url(#paint11_radial_214_5868)"/>
<path d="M51.2493 67.2263C51.5137 66.5259 51.8006 65.8312 52.1325 65.1505C52.1775 65.0605 52.2253 64.9733 52.2703 64.8833C49.6207 57.9753 46.8221 53.2416 43.2584 49.6329C40.1279 46.463 36.3645 44.3422 32.5842 43.5181C30.3763 46.3561 28.4186 49.4613 26.776 52.8225C26.3372 53.7197 25.9322 54.6254 25.5469 55.5339C29.3468 55.3398 33.3577 56.0121 37.2167 57.5787C41.9477 59.497 46.3749 62.5403 51.2465 67.2291L51.2493 67.2263Z" fill="url(#paint12_radial_214_5868)"/>
<path d="M32.3027 72.9277C37.4752 72.1964 42.9487 72.6295 49.7217 74.334C49.7554 73.7828 49.8089 73.2315 49.8792 72.6802C44.6476 67.2826 40.1557 63.9777 35.4022 62.0482C31.4645 60.4506 27.3776 59.9668 23.7155 60.5631C22.0616 65.941 21.3191 71.437 21.4063 76.8683C24.5509 74.8713 28.2777 73.4959 32.3027 72.9249V72.9277Z" fill="url(#paint13_radial_214_5868)"/>
<path d="M46.6956 46.2377C50.1636 49.7508 52.9566 54.0992 55.5077 60.0171C56.7622 58.5574 58.1742 57.2719 59.7043 56.1694C59.0827 48.5582 57.6651 42.9553 55.1702 38.2103C53.4039 34.852 51.0356 32.0365 48.3326 29.9663C43.8435 32.4921 39.7004 35.6817 36.0664 39.4873C39.8945 40.7727 43.5763 43.0763 46.6984 46.2377H46.6956Z" fill="url(#paint14_radial_214_5868)"/>
<path d="M103.149 43.5318C100.745 48.8591 97.0656 53.7841 91.4346 59.1676C92.7762 60.5908 93.9435 62.18 94.9195 63.9154C96.6043 62.796 98.261 61.6456 99.8727 60.4474C104.587 56.9456 111.213 51.2049 116.203 43.6697C113.278 39.881 109.804 36.4635 105.836 33.5327C105.515 36.8658 104.626 40.2579 103.149 43.529V43.5318Z" fill="url(#paint15_radial_214_5868)"/>
<path d="M109.821 86.2652C97.6589 80.9183 85.089 75.4054 69.4082 84.8335C79.1767 84.4594 88.9902 88.5491 98.1118 92.3547C107.087 96.1012 115.261 99.5102 122.304 98.416C123.325 96.225 124.199 94.0001 124.9 91.75C119.767 90.6305 114.763 88.4366 109.821 86.2624V86.2652Z" fill="url(#paint16_linear_214_5868)"/>
<path d="M12.5298 60.7121C12.3188 61.6319 11.97 62.4504 11.4862 63.1704C11.0025 63.8905 10.4174 64.4755 9.72831 64.9256C9.0392 65.3756 8.28259 65.6765 7.45847 65.8284C6.63435 65.9803 5.77366 65.9522 4.87641 65.7441C3.97916 65.5359 3.19442 65.1871 2.51938 64.6893C1.84433 64.1943 1.29585 63.5895 0.87395 62.8751C0.452046 62.1607 0.182027 61.3759 0.063894 60.5181C-0.0542392 59.6602 -0.00923605 58.7714 0.204529 57.8516C0.443608 56.8194 0.837385 55.9221 1.38867 55.1655C1.93996 54.4089 2.62626 53.8239 3.45038 53.416L4.6739 55.579C4.11699 55.8687 3.66133 56.24 3.30693 56.69C2.95253 57.14 2.70501 57.6604 2.57 58.251C2.44062 58.808 2.41812 59.3395 2.49687 59.8486C2.57563 60.3577 2.7472 60.8218 3.0116 61.2409C3.27318 61.66 3.61633 62.0172 4.03823 62.3126C4.46014 62.6079 4.95517 62.8189 5.52333 62.951C6.0915 63.0804 6.62872 63.1057 7.13782 63.027C7.64692 62.9482 8.11101 62.7767 8.5301 62.5151C8.9492 62.2535 9.30641 61.9104 9.60174 61.4884C9.89707 61.0665 10.108 60.5771 10.2346 60.0202C10.3696 59.4296 10.3752 58.8558 10.2487 58.2932C10.1221 57.7307 9.86895 57.1991 9.49767 56.6928L11.5453 55.2808C12.1079 56.0093 12.4735 56.8334 12.6423 57.7588C12.811 58.6842 12.7773 59.6658 12.5354 60.7121H12.5298Z" fill="#7FB138"/>
<path d="M13.6235 54.9684L4.87598 44.8343L6.06856 42.3057L19.4739 42.5616L18.2053 45.2477L6.5214 44.7021L7.00519 43.6754L14.8582 52.3442L13.6206 54.9684H13.6235ZM12.4224 51.3682L10.7826 49.8043L13.48 44.0833L15.7386 44.3364L12.4224 51.371V51.3682Z" fill="#7FB138"/>
<path d="M20.5633 41.1724L10.8623 33.7187L14.0885 29.5194C14.7551 28.6503 15.4723 28.0118 16.2374 27.5983C17.0024 27.1877 17.7787 27.0133 18.5691 27.0751C19.3595 27.137 20.1133 27.4464 20.8333 28.0005C21.5646 28.5602 22.0568 29.2128 22.3156 29.9553C22.5744 30.6979 22.5997 31.4883 22.3887 32.3264C22.1778 33.1646 21.739 34.0169 21.0724 34.886L18.7941 37.8506L18.6113 36.0786L22.2959 38.911L20.5605 41.1696L20.5633 41.1724ZM18.8644 36.2727L17.008 36.478L19.1907 33.6372C19.7167 32.9537 19.967 32.3236 19.9389 31.7442C19.9136 31.1676 19.6323 30.6726 19.0951 30.2591C18.5606 29.8485 18.0122 29.705 17.4496 29.8316C16.8871 29.9582 16.3442 30.366 15.8211 31.0495L13.6384 33.8903L13.36 32.0452L18.8616 36.2727H18.8644ZM25.3139 34.9929L19.9192 34.7257L21.7727 32.3152L27.1675 32.5824L25.3139 34.9929Z" fill="#7FB138"/>
<path d="M28.9338 30.8242L21.0273 21.4917L25.5867 17.627C26.7596 16.6342 27.8313 16.1082 28.7988 16.0519C29.7664 15.9957 30.5596 16.3332 31.1755 17.0617C31.589 17.5511 31.8281 18.0771 31.8956 18.6396C31.9603 19.2021 31.8647 19.7619 31.6087 20.316C31.3527 20.8701 30.9562 21.3707 30.4246 21.8236L30.2024 21.0501C30.7902 20.5522 31.3893 20.2119 32.0053 20.0263C32.6213 19.8406 33.2148 19.8266 33.7885 19.9813C34.3623 20.136 34.8799 20.4847 35.3383 21.0276C36.0162 21.8264 36.23 22.7208 35.9796 23.7025C35.7293 24.6869 34.9896 25.6967 33.7632 26.7374L28.9366 30.827L28.9338 30.8242ZM29.7017 27.3786L32.2359 25.2326C32.7872 24.7657 33.1304 24.3156 33.2654 23.8797C33.4004 23.4437 33.3019 23.0302 32.97 22.6393C32.6325 22.2399 32.2359 22.0711 31.7859 22.133C31.3331 22.1949 30.8324 22.4592 30.2811 22.9262L27.5865 25.2072L26.2533 23.635L28.5597 21.6801C29.0829 21.2357 29.4092 20.8026 29.5329 20.3835C29.6595 19.9644 29.5639 19.5678 29.246 19.1937C28.9282 18.8196 28.5569 18.6621 28.1266 18.724C27.6962 18.7831 27.2181 19.0362 26.6949 19.4806L24.5488 21.3004L29.6989 27.3815L29.7017 27.3786Z" fill="#7FB138"/>
<path d="M44.9996 19.6101C44.1417 20.0545 43.2754 20.3245 42.4091 20.4174C41.54 20.513 40.7046 20.4455 39.9058 20.2177C39.1042 19.9898 38.3813 19.6101 37.7344 19.0785C37.0875 18.5469 36.5531 17.8803 36.1368 17.0731C35.7149 16.2546 35.4758 15.4305 35.4196 14.6007C35.3633 13.771 35.473 12.9609 35.7515 12.1762C36.0299 11.3914 36.4518 10.6714 37.0284 10.0216C37.6022 9.37191 38.3194 8.82344 39.1801 8.37903C40.038 7.93463 40.8987 7.66461 41.7594 7.56616C42.6201 7.46772 43.4498 7.53522 44.2514 7.76305C45.053 7.99088 45.7759 8.37059 46.4228 8.90219C47.0697 9.43379 47.607 10.106 48.0289 10.9245C48.4452 11.7318 48.6842 12.5559 48.7461 13.3969C48.808 14.2379 48.6983 15.0507 48.4226 15.8355C48.147 16.6202 47.7195 17.3375 47.1429 17.9816C46.5635 18.6285 45.8518 19.1713 45.0024 19.6101H44.9996ZM43.8858 17.4922C44.3724 17.2418 44.7746 16.924 45.0952 16.5415C45.4159 16.1589 45.6493 15.7314 45.7956 15.2533C45.9447 14.7779 45.9953 14.2857 45.9475 13.7794C45.9025 13.2703 45.745 12.7584 45.4778 12.2409C45.2106 11.7233 44.8843 11.2986 44.4961 10.9695C44.108 10.6376 43.6776 10.3957 43.2051 10.241C42.7326 10.0863 42.246 10.0301 41.7481 10.0695C41.2503 10.1117 40.7581 10.2551 40.2715 10.5082C39.7849 10.7586 39.3798 11.0792 39.0536 11.4617C38.7273 11.8471 38.4938 12.2746 38.3504 12.75C38.2098 13.2253 38.1591 13.7147 38.2069 14.221C38.2519 14.7273 38.4095 15.242 38.6767 15.7595C38.9439 16.2771 39.273 16.7018 39.6583 17.0309C40.0464 17.3628 40.474 17.6075 40.9409 17.765C41.4078 17.9225 41.8944 17.9788 42.3979 17.9366C42.8985 17.8944 43.3936 17.7453 43.8801 17.495L43.8858 17.4922Z" fill="#7FB138"/>
<path d="M53.2179 15.5878L50.2617 3.71827L52.5344 3.15292L61.6672 9.95402L60.5646 10.2297L58.4354 1.68188L61.1497 1.00684L64.1086 12.8764L61.836 13.4418L52.7031 6.64066L53.8057 6.36502L55.9349 14.91L53.2207 15.585L53.2179 15.5878Z" fill="#7FB138"/>
<path d="M66.6541 12.5587L66.5866 10.376L73.5002 1.61167L73.9587 2.83801L66.4994 3.06865L66.415 0.326273L76.9486 0L77.0161 2.18265L70.0828 10.947L69.6243 9.72067L77.5027 9.47597L77.5871 12.2183L66.6541 12.5559V12.5587Z" fill="#448438"/>
<path d="M83.5051 10.3533L89.8168 11.3856L89.3837 14.0408L79.708 12.46L81.6797 0.387939L91.1304 1.93211L90.6972 4.58729L84.6105 3.5916L83.5051 10.3533ZM84.0396 5.57174L89.6453 6.48867L89.2318 9.02291L83.6261 8.10597L84.0396 5.57174Z" fill="#448438"/>
<path d="M91.7891 14.6766L96.1431 3.24585L101.352 5.2288C102.399 5.62539 103.237 6.14011 103.87 6.76734C104.502 7.39457 104.902 8.10619 105.068 8.89655C105.234 9.68973 105.152 10.5167 104.826 11.3745C104.491 12.2577 103.999 12.93 103.355 13.3941C102.711 13.8581 101.943 14.1113 101.054 14.1535C100.165 14.1957 99.1977 14.0157 98.1542 13.6191L94.7255 12.3112L96.7028 11.4927L95.0237 15.903L91.7891 14.671V14.6766ZM96.5594 11.8752L95.679 9.81912L98.9136 11.0511C99.5887 11.307 100.151 11.3548 100.601 11.1889C101.051 11.023 101.378 10.6742 101.58 10.1398C101.774 9.62785 101.76 9.15813 101.538 8.7306C101.316 8.30307 100.866 7.95993 100.191 7.70397L96.956 6.47201L98.9755 5.5382L96.5622 11.8752H96.5594ZM98.8461 17.3656L97.5888 12.1199L101.034 13.4306L102.306 18.6847L98.8433 17.3656H98.8461Z" fill="#448438"/>
<path d="M109.14 23.2496C108.336 22.7124 107.675 22.0824 107.157 21.3567C106.64 20.631 106.288 19.8631 106.105 19.0447C105.923 18.229 105.903 17.402 106.049 16.5667C106.195 15.7313 106.522 14.9325 107.034 14.1674C107.54 13.4108 108.147 12.8089 108.862 12.3617C109.576 11.9145 110.344 11.6191 111.168 11.4757C111.992 11.3322 112.836 11.3604 113.7 11.5601C114.56 11.7598 115.398 12.1282 116.214 12.6739C117.027 13.2167 117.691 13.8496 118.203 14.5725C118.715 15.2925 119.063 16.0604 119.252 16.8704C119.437 17.6833 119.46 18.5018 119.319 19.3344C119.179 20.1641 118.85 20.9629 118.341 21.728C117.823 22.5043 117.207 23.1174 116.495 23.5731C115.784 24.0287 115.016 24.3241 114.189 24.4591C113.365 24.5941 112.518 24.5632 111.658 24.3635C110.794 24.1638 109.956 23.7953 109.143 23.2496H109.14ZM110.732 20.8673C111.12 21.126 111.525 21.3004 111.95 21.3876C112.375 21.4748 112.797 21.4748 113.216 21.382C113.635 21.292 114.031 21.1148 114.408 20.856C114.785 20.5973 115.123 20.2429 115.421 19.7985C115.719 19.354 115.916 18.9068 116.012 18.4596C116.107 18.0124 116.119 17.5764 116.043 17.1545C115.967 16.7326 115.806 16.3417 115.564 15.9844C115.32 15.6244 115.005 15.3178 114.619 15.0563C114.231 14.7975 113.826 14.6231 113.401 14.5359C112.977 14.4487 112.552 14.4487 112.13 14.5359C111.705 14.6231 111.309 14.8003 110.938 15.0619C110.563 15.3263 110.229 15.6807 109.933 16.1251C109.635 16.5695 109.436 17.0167 109.334 17.4583C109.233 17.9027 109.222 18.3387 109.303 18.7634C109.385 19.1881 109.545 19.5791 109.79 19.9391C110.032 20.2991 110.35 20.6057 110.735 20.8673H110.732Z" fill="#448438"/>
<path d="M117.443 29.7552C117.035 29.3727 116.819 28.9142 116.791 28.3826C116.763 27.851 116.954 27.3701 117.362 26.9369C117.761 26.5122 118.222 26.3041 118.746 26.3097C119.269 26.3153 119.733 26.5094 120.141 26.8947C120.546 27.2772 120.768 27.7301 120.805 28.2533C120.841 28.7764 120.658 29.2489 120.259 29.6709C119.851 30.104 119.381 30.3206 118.85 30.3234C118.318 30.3234 117.848 30.1349 117.443 29.7524V29.7552Z" fill="#448438"/>
<path d="M125.125 33.7946L129.099 38.8068L126.99 40.4775L120.9 32.7933L130.486 25.1934L136.435 32.6976L134.325 34.3684L130.492 29.5333L125.122 33.789L125.125 33.7946ZM128.739 30.619L132.266 35.0687L130.253 36.6635L126.725 32.2138L128.739 30.619Z" fill="#448438"/>
<path d="M130.868 48.1085C130.432 47.245 130.165 46.3815 130.072 45.5152C129.98 44.6489 130.047 43.8163 130.278 43.0203C130.508 42.2243 130.894 41.4986 131.439 40.8461C131.982 40.1907 132.669 39.6535 133.501 39.2316C134.334 38.8097 135.172 38.5734 136.021 38.5228C136.871 38.4722 137.684 38.5875 138.463 38.8716C139.242 39.1557 139.951 39.5916 140.598 40.1795C141.242 40.7673 141.782 41.493 142.22 42.3537C142.732 43.3606 143.014 44.3507 143.07 45.3239C143.123 46.2943 142.949 47.2168 142.541 48.0888L139.768 47.0256C140.004 46.463 140.125 45.9118 140.125 45.3745C140.125 44.8373 139.998 44.3141 139.743 43.805C139.517 43.3578 139.236 42.9837 138.902 42.6828C138.567 42.3818 138.193 42.1709 137.785 42.0443C137.374 41.9177 136.941 41.8783 136.48 41.9234C136.018 41.9684 135.554 42.109 135.087 42.3453C134.621 42.5815 134.232 42.874 133.923 43.22C133.614 43.566 133.389 43.9401 133.248 44.3451C133.107 44.7501 133.06 45.1748 133.105 45.6249C133.147 46.0721 133.285 46.5193 133.51 46.9665C133.768 47.4756 134.114 47.8891 134.547 48.2041C134.981 48.5191 135.501 48.7469 136.106 48.882L135.324 51.7481C134.379 51.5596 133.529 51.1602 132.773 50.5414C132.016 49.9255 131.383 49.1126 130.871 48.1057L130.868 48.1085Z" fill="#448438"/>
<path d="M135.413 60.5714C135.18 59.632 135.112 58.7207 135.216 57.8375C135.321 56.9543 135.579 56.147 135.99 55.4185C136.403 54.6901 136.943 54.0656 137.61 53.5453C138.279 53.0249 139.059 52.6509 139.953 52.4287C140.836 52.2093 141.691 52.1727 142.518 52.319C143.348 52.4652 144.116 52.7634 144.822 53.2106C145.528 53.6578 146.135 54.2457 146.639 54.9713C147.145 55.697 147.516 56.5352 147.753 57.4859C147.989 58.4366 148.056 59.3479 147.952 60.2283C147.848 61.1058 147.592 61.9102 147.184 62.6359C146.777 63.3616 146.242 63.986 145.578 64.5036C144.915 65.0239 144.138 65.3952 143.244 65.6174C142.341 65.8424 141.472 65.8874 140.637 65.7468C139.801 65.6061 139.036 65.308 138.333 64.8551C137.63 64.3995 137.028 63.8088 136.522 63.0831C136.015 62.3575 135.644 61.5193 135.408 60.5686L135.413 60.5714ZM138.195 59.8767C138.308 60.3295 138.493 60.7317 138.749 61.0805C139.005 61.4321 139.317 61.7134 139.689 61.9271C140.06 62.1409 140.473 62.2787 140.926 62.3378C141.379 62.3997 141.866 62.3631 142.386 62.2337C142.906 62.1043 143.351 61.9046 143.722 61.6374C144.093 61.3702 144.394 61.0552 144.622 60.6924C144.85 60.3295 144.993 59.9329 145.055 59.5026C145.114 59.0722 145.089 58.6306 144.976 58.1806C144.864 57.7278 144.678 57.3284 144.422 56.9768C144.166 56.6252 143.851 56.3411 143.48 56.1217C143.106 55.9023 142.695 55.7645 142.243 55.7111C141.79 55.6548 141.303 55.6942 140.783 55.8236C140.262 55.953 139.815 56.1498 139.444 56.4114C139.07 56.673 138.772 56.988 138.547 57.3565C138.322 57.725 138.175 58.1244 138.116 58.5547C138.057 58.985 138.083 59.4238 138.195 59.8767Z" fill="#448438"/>
<path d="M1.27314 77.4841C1.2647 77.0201 1.33502 76.5869 1.48128 76.1875C1.62754 75.7853 1.83849 75.4365 2.11414 75.1412C2.38978 74.843 2.71605 74.6096 3.09295 74.4408C3.46985 74.272 3.88332 74.182 4.33616 74.1764C4.78901 74.168 5.20529 74.2439 5.58781 74.4014C5.96753 74.5589 6.30224 74.7811 6.58913 75.0737C6.87603 75.3634 7.09542 75.7065 7.25574 76.1031C7.41325 76.4997 7.49763 76.93 7.50326 77.3941C7.5117 77.9173 7.43013 78.3898 7.25574 78.8174C7.08135 79.2449 6.82259 79.6049 6.47662 79.8946L5.63563 79.0058C5.86908 78.8005 6.04066 78.5698 6.15879 78.3139C6.27411 78.0579 6.33036 77.7795 6.32474 77.4813C6.31911 77.2001 6.26849 76.9441 6.17004 76.7107C6.0716 76.4772 5.93377 76.2747 5.75939 76.1059C5.585 75.9372 5.37967 75.8078 5.14341 75.715C4.90714 75.6221 4.64556 75.58 4.35867 75.5856C4.07177 75.5912 3.813 75.6418 3.57955 75.7403C3.3461 75.8387 3.14358 75.9765 2.97482 76.1509C2.80606 76.3253 2.67667 76.5306 2.58386 76.7669C2.49385 77.0032 2.45166 77.2619 2.45447 77.5432C2.4601 77.8414 2.52479 78.117 2.65417 78.3701C2.78074 78.6233 2.96357 78.8483 3.20265 79.0452L2.39259 79.9621C2.03819 79.6809 1.76536 79.3293 1.57691 78.9102C1.38565 78.4883 1.2872 78.0157 1.27876 77.487L1.27314 77.4841Z" fill="#7FB138"/>
<path d="M1.42273 80.3926L7.69504 82.4065L7.8413 83.7734L2.1456 87.1037L1.98809 85.6495L7.03406 82.8818L7.09313 83.4359L1.57181 81.8074L1.41992 80.387L1.42273 80.3926ZM2.84877 81.5964L3.93728 81.8327L4.27199 84.9267L3.25942 85.3992L2.84877 81.5936V81.5964Z" fill="#7FB138"/>
<path d="M2.3252 87.9867L8.22623 86.7913L8.74376 89.3452C8.85065 89.874 8.85627 90.3465 8.76345 90.7628C8.67063 91.1791 8.48218 91.525 8.20373 91.7979C7.92527 92.0707 7.56806 92.2507 7.12928 92.3407C6.68487 92.4307 6.28266 92.4026 5.92544 92.2591C5.56542 92.1157 5.26446 91.871 5.02257 91.5222C4.77787 91.1734 4.60348 90.7347 4.4966 90.2087L4.13095 88.4057L4.84818 88.9092L2.60646 89.3621L2.32801 87.9867H2.3252ZM3.08462 91.7472L4.92412 89.8318L5.22227 91.2972L3.38277 93.2126L3.08462 91.7472ZM4.69067 88.9402L5.21383 88.1835L5.56261 89.9105C5.64699 90.3268 5.80169 90.6221 6.02389 90.7993C6.24609 90.9765 6.52174 91.0328 6.84801 90.9653C7.17428 90.9006 7.40492 90.7431 7.53712 90.4928C7.67213 90.2424 7.69463 89.9105 7.61306 89.4943L7.26429 87.7644L8.04059 88.2567L4.69348 88.9345L4.69067 88.9402Z" fill="#7FB138"/>
<path d="M3.70898 94.4502L9.4722 92.7119L10.3216 95.5274C10.541 96.2531 10.5663 96.8381 10.4032 97.2854C10.2372 97.7326 9.93067 98.0251 9.48063 98.1601C9.17968 98.2501 8.89559 98.2557 8.62839 98.1742C8.36118 98.0926 8.12773 97.9407 7.92803 97.7157C7.72832 97.4907 7.57925 97.215 7.48081 96.886L7.87459 96.9366C7.98428 97.2994 8.02085 97.6369 7.98147 97.9492C7.9449 98.2614 7.83521 98.5342 7.65238 98.762C7.46956 98.9899 7.21079 99.1558 6.87608 99.2571C6.38104 99.4061 5.93664 99.3274 5.54286 99.0208C5.14908 98.7142 4.83687 98.1826 4.60905 97.426L3.70898 94.4445V94.4502ZM5.11252 95.474L5.58505 97.0378C5.68912 97.3782 5.82413 97.6201 5.99289 97.7663C6.16165 97.9126 6.36979 97.9492 6.60887 97.876C6.85639 97.8029 7.01109 97.6566 7.07015 97.4401C7.13203 97.2235 7.10953 96.945 7.00828 96.6047L6.50762 94.9424L7.478 94.6499L7.90834 96.0731C8.00678 96.3965 8.13617 96.6272 8.30211 96.7678C8.46806 96.9056 8.66495 96.9422 8.89559 96.8719C9.12623 96.8016 9.26968 96.6638 9.32875 96.4584C9.385 96.2531 9.36531 95.9887 9.26968 95.6624L8.87028 94.3377L5.11533 95.4712L5.11252 95.474Z" fill="#7FB138"/>
<path d="M6.78603 103.755C6.60321 103.316 6.50757 102.88 6.49632 102.45C6.48507 102.019 6.55258 101.614 6.69884 101.229C6.8451 100.846 7.06167 100.506 7.34857 100.211C7.63546 99.9154 7.98424 99.6819 8.3977 99.5104C8.8168 99.336 9.23026 99.2544 9.6381 99.26C10.0488 99.2685 10.4397 99.3557 10.8138 99.5216C11.1879 99.6904 11.5226 99.9266 11.8179 100.236C12.1133 100.545 12.3524 100.92 12.5352 101.358C12.718 101.797 12.8136 102.23 12.8277 102.658C12.8389 103.085 12.7743 103.488 12.628 103.873C12.4817 104.255 12.2652 104.596 11.9783 104.891C11.6914 105.186 11.3398 105.423 10.9207 105.594C10.5072 105.766 10.0938 105.847 9.68029 105.845C9.26401 105.839 8.87024 105.755 8.49615 105.586C8.12206 105.417 7.79016 105.178 7.49764 104.869C7.20512 104.559 6.96886 104.188 6.78884 103.752L6.78603 103.755ZM7.87173 103.296C7.9758 103.544 8.11362 103.755 8.28801 103.929C8.4624 104.103 8.6621 104.236 8.88993 104.326C9.11775 104.419 9.35683 104.464 9.60716 104.461C9.85749 104.461 10.1163 104.404 10.3807 104.295C10.645 104.185 10.8672 104.042 11.0444 103.864C11.2216 103.687 11.3595 103.488 11.4551 103.263C11.5507 103.037 11.5986 102.801 11.5986 102.557C11.5986 102.312 11.5479 102.064 11.4439 101.814C11.3398 101.566 11.202 101.353 11.0248 101.178C10.8504 101.004 10.6479 100.872 10.4228 100.782C10.1978 100.695 9.95875 100.65 9.70842 100.65C9.45809 100.65 9.19932 100.706 8.93493 100.815C8.67054 100.925 8.44833 101.069 8.27113 101.246C8.09393 101.423 7.95611 101.623 7.85767 101.845C7.76204 102.067 7.71141 102.303 7.71422 102.551C7.71422 102.798 7.76766 103.046 7.86892 103.296H7.87173Z" fill="#7FB138"/>
<path d="M8.75195 107.974L14.0483 105.11L14.5967 106.123L12.4731 111.31L12.2088 110.817L16.02 108.756L16.6753 109.965L11.379 112.828L10.8305 111.816L12.9541 106.629L13.2213 107.121L9.41012 109.183L8.75477 107.974H8.75195Z" fill="#7FB138"/>
<path d="M13.6581 116.446L18.5156 112.89L20.1301 115.098C20.5154 115.627 20.7545 116.164 20.8501 116.716C20.943 117.264 20.8923 117.787 20.6926 118.28C20.4957 118.772 20.1526 119.196 19.6604 119.556C19.171 119.916 18.6591 120.113 18.1303 120.153C17.6015 120.192 17.0896 120.085 16.5917 119.829C16.0967 119.573 15.6551 119.182 15.2698 118.656L13.6553 116.448L13.6581 116.446ZM15.402 116.907L16.1473 117.928C16.3836 118.251 16.6508 118.488 16.9489 118.637C17.2443 118.786 17.5565 118.842 17.8828 118.805C18.209 118.769 18.524 118.64 18.8278 118.417C19.1372 118.19 19.3566 117.928 19.4888 117.63C19.6182 117.332 19.6576 117.019 19.6069 116.69C19.5563 116.361 19.41 116.035 19.1738 115.712L18.4284 114.691L15.402 116.904V116.907Z" fill="#7FB138"/>
<path d="M18.085 122.268L22.6781 118.378L23.5838 119.447L18.9906 123.337L18.085 122.268Z" fill="#7FB138"/>
<path d="M22.006 126.763C21.6741 126.422 21.421 126.054 21.2522 125.66C21.0806 125.266 20.9934 124.861 20.985 124.454C20.9766 124.043 21.0525 123.649 21.2072 123.267C21.3619 122.884 21.601 122.538 21.9216 122.226C22.2451 121.911 22.5995 121.677 22.982 121.531C23.3645 121.385 23.7611 121.32 24.169 121.337C24.5768 121.354 24.9762 121.45 25.3672 121.627C25.7553 121.804 26.1182 122.063 26.4501 122.4C26.782 122.741 27.0351 123.106 27.2039 123.497C27.3726 123.888 27.4626 124.288 27.4711 124.698C27.4795 125.106 27.4036 125.503 27.2489 125.885C27.0942 126.268 26.8523 126.617 26.5288 126.932C26.2082 127.244 25.8566 127.477 25.4684 127.626C25.0831 127.775 24.6837 127.843 24.273 127.826C23.8652 127.809 23.4658 127.711 23.0777 127.533C22.6895 127.353 22.3323 127.097 22.0032 126.763H22.006ZM22.8414 125.933C23.0298 126.127 23.238 126.271 23.463 126.366C23.688 126.462 23.9243 126.51 24.169 126.51C24.4137 126.51 24.6528 126.462 24.8862 126.369C25.1197 126.273 25.3362 126.127 25.5416 125.925C25.7469 125.725 25.8988 125.508 26 125.28C26.0985 125.05 26.1519 124.814 26.1576 124.566C26.1632 124.321 26.1182 124.085 26.0282 123.854C25.9382 123.627 25.7975 123.416 25.6091 123.224C25.4206 123.03 25.2125 122.887 24.9847 122.788C24.7568 122.69 24.5206 122.642 24.2787 122.645C24.0368 122.645 23.7977 122.696 23.5642 122.788C23.3308 122.881 23.1142 123.03 22.9089 123.23C22.7036 123.433 22.5517 123.646 22.4504 123.877C22.352 124.108 22.2985 124.344 22.2901 124.586C22.2817 124.828 22.3267 125.064 22.4195 125.295C22.5123 125.525 22.6529 125.736 22.8414 125.927V125.933Z" fill="#7FB138"/>
<path d="M24.8691 129.48L29.1416 128.414L28.4863 129.19L28.8322 124.948L30.0361 125.964L29.7914 128.909L29.2682 128.49L32.1343 127.733L33.2847 128.703L29.2091 129.722L29.8532 128.959L29.5157 133.401L28.2866 132.363L28.5791 129.269L29.0657 129.679L26.0842 130.506L24.8691 129.48Z" fill="#7FB138"/>
<path d="M30.2949 133.918L33.8727 129.077L35.0006 129.91L31.4228 134.751L30.2949 133.918Z" fill="#7FB138"/>
<path d="M32.7334 135.744L35.9596 130.661L38.2688 132.127C38.8201 132.478 39.2392 132.892 39.5289 133.37C39.8158 133.848 39.9592 134.351 39.9536 134.883C39.948 135.415 39.7848 135.935 39.4585 136.447C39.1323 136.962 38.7301 137.333 38.2519 137.561C37.7737 137.791 37.2562 137.876 36.7021 137.819C36.148 137.763 35.5939 137.561 35.0426 137.209L32.7334 135.744ZM34.5251 135.536L35.5911 136.213C35.9286 136.427 36.2661 136.551 36.5952 136.582C36.9271 136.613 37.2365 136.551 37.5262 136.399C37.8159 136.247 38.0635 136.011 38.266 135.693C38.4713 135.37 38.581 135.043 38.5951 134.72C38.6063 134.396 38.5304 134.09 38.3616 133.803C38.1928 133.516 37.9397 133.266 37.6022 133.052L36.5362 132.374L34.5279 135.541L34.5251 135.536Z" fill="#7FB138"/>
<path d="M40.7606 139.237L43.6774 140.73L43.1683 141.726L39.0195 139.603L41.7619 134.244L45.8122 136.317L45.3031 137.313L42.4848 135.87L40.7606 139.237ZM41.8013 136.978L44.3805 138.297L43.8827 139.271L41.3034 137.952L41.8013 136.978Z" fill="#7FB138"/>
<path d="M46.7548 143.293L48.8249 137.639L51.272 138.536C51.7782 138.722 52.1833 138.964 52.4898 139.262C52.7964 139.56 52.9933 139.898 53.0805 140.277C53.1677 140.657 53.134 141.057 52.9793 141.478C52.8246 141.903 52.5911 142.232 52.2789 142.463C51.9695 142.694 51.601 142.823 51.1763 142.848C50.7516 142.874 50.2875 142.792 49.7812 142.606L48.0514 141.974L48.8558 141.628L48.0683 143.776L46.752 143.295L46.7548 143.293ZM48.8052 141.771L48.4339 140.93L50.0906 141.538C50.49 141.684 50.8219 141.706 51.0891 141.611C51.3563 141.512 51.5476 141.31 51.6629 140.995C51.7782 140.682 51.7642 140.404 51.6207 140.159C51.4773 139.915 51.2073 139.721 50.8107 139.574L49.154 138.97L49.9781 138.567L48.8052 141.774V141.771ZM50.3578 144.612L49.6884 142.041L51.0947 142.556L51.7642 145.127L50.3578 144.612Z" fill="#7FB138"/>
<path d="M54.5993 144.755L57.7635 145.607L57.471 146.687L52.9707 145.475L54.5374 139.664L58.9308 140.848L58.6383 141.928L55.5837 141.104L54.5993 144.758V144.755ZM55.1477 142.328L57.9464 143.081L57.6623 144.136L54.8636 143.382L55.1477 142.328Z" fill="#7FB138"/>
<path d="M58.8495 147.034L59.8227 141.093L60.959 141.279L62.8013 145.886L62.1994 145.788L65.3637 142.002L66.5085 142.19L65.5353 148.131L64.2527 147.92L64.8855 143.954L65.1415 143.996L62.5932 146.994L61.9828 146.893L60.4977 143.234L60.779 143.279L60.1293 147.242L58.8467 147.031L58.8495 147.034Z" fill="#7FB138"/>
<path d="M70.2205 148.541C69.7452 148.516 69.312 148.417 68.9182 148.243C68.5245 148.069 68.1869 147.832 67.9028 147.537C67.6188 147.242 67.405 146.899 67.2616 146.513C67.1181 146.128 67.0562 145.712 67.0787 145.264C67.1012 144.812 67.2053 144.404 67.3853 144.035C67.5681 143.67 67.8157 143.352 68.1279 143.087C68.4401 142.823 68.8001 142.623 69.2051 142.488C69.6102 142.353 70.0517 142.3 70.5271 142.322C71.0024 142.348 71.4356 142.443 71.8266 142.618C72.2175 142.789 72.5522 143.023 72.8363 143.318C73.1204 143.613 73.3342 143.954 73.4776 144.342C73.6211 144.727 73.6829 145.146 73.6576 145.599C73.6351 146.046 73.531 146.454 73.3482 146.828C73.1654 147.202 72.9179 147.52 72.6057 147.785C72.2935 148.049 71.9334 148.249 71.5284 148.381C71.1234 148.513 70.6846 148.567 70.2149 148.541H70.2205ZM70.2711 147.366C70.5412 147.38 70.7915 147.346 71.0221 147.261C71.2528 147.18 71.4581 147.053 71.6409 146.887C71.8209 146.721 71.9644 146.525 72.0713 146.297C72.1781 146.069 72.2372 145.813 72.2541 145.526C72.2681 145.239 72.2344 144.978 72.1528 144.741C72.0713 144.505 71.9475 144.294 71.7844 144.111C71.6212 143.928 71.43 143.782 71.2078 143.678C70.9856 143.571 70.7409 143.512 70.4708 143.498C70.2008 143.484 69.9505 143.518 69.717 143.602C69.4836 143.684 69.2783 143.81 69.1011 143.976C68.9239 144.142 68.7804 144.339 68.6735 144.567C68.5666 144.795 68.5076 145.051 68.4907 145.338C68.4766 145.624 68.5104 145.886 68.592 146.122C68.6735 146.359 68.7973 146.57 68.9548 146.752C69.1151 146.935 69.3064 147.081 69.5314 147.186C69.7564 147.292 70.0011 147.351 70.2711 147.366Z" fill="#7FB138"/>
<path d="M76.6616 148.49L73.7617 142.606L75.2721 142.53L77.8036 147.745L76.9176 147.787L78.9568 142.348L80.3406 142.28L78.0342 148.42L76.6588 148.488L76.6616 148.49Z" fill="#7FB138"/>
<path d="M80.7549 148.3L82.5747 141.968L83.9389 141.78L87.4435 147.371L85.9949 147.574L83.0754 142.615L83.6295 142.539L82.1725 148.108L80.7577 148.305L80.7549 148.3ZM81.9137 146.837L82.1162 145.74L85.1989 145.313L85.7024 146.311L81.9109 146.84L81.9137 146.837Z" fill="#7FB138"/>
<path d="M88.2953 147.149L86.9648 141.279L88.3318 140.97L89.4119 145.734L92.3399 145.071L92.5902 146.179L88.2953 147.152V147.149Z" fill="#7FB138"/>
<path d="M97.1831 144.758L95.5827 140.143L93.7629 140.775L93.3916 139.704L98.3476 137.982L98.7188 139.054L96.899 139.687L98.4995 144.303L97.1831 144.758Z" fill="#7FB138"/>
<path d="M102.541 142.727L101.262 143.301L98.792 137.811L100.072 137.237L102.541 142.727ZM104.108 139.316L101.425 140.522L100.941 139.448L103.624 138.241L104.108 139.316ZM102.558 136.12L103.83 135.549L106.299 141.04L105.028 141.611L102.558 136.12Z" fill="#7FB138"/>
<path d="M107.835 140.238L104.851 135.009L107.115 133.718C107.582 133.451 108.029 133.297 108.454 133.254C108.878 133.212 109.264 133.282 109.61 133.46C109.956 133.64 110.24 133.921 110.462 134.309C110.687 134.703 110.785 135.094 110.763 135.479C110.74 135.865 110.6 136.227 110.347 136.568C110.091 136.908 109.731 137.212 109.261 137.479L107.663 138.39L107.916 137.552L109.05 139.538L107.832 140.233L107.835 140.238ZM107.995 137.69L107.115 137.431L108.645 136.556C109.013 136.345 109.247 136.106 109.345 135.839C109.444 135.572 109.41 135.294 109.247 135.004C109.084 134.714 108.861 134.545 108.58 134.498C108.299 134.45 107.978 134.528 107.61 134.739L106.08 135.614L106.305 134.723L107.998 137.687L107.995 137.69ZM111.165 138.337L108.769 137.189L110.068 136.447L112.465 137.594L111.165 138.337Z" fill="#7FB138"/>
<path d="M115.986 135.307C115.598 135.583 115.196 135.771 114.776 135.878C114.36 135.985 113.95 136.008 113.542 135.951C113.137 135.895 112.757 135.76 112.405 135.544C112.054 135.33 111.747 135.04 111.488 134.674C111.227 134.306 111.055 133.921 110.971 133.518C110.886 133.119 110.886 132.717 110.968 132.315C111.05 131.912 111.207 131.535 111.443 131.178C111.68 130.821 111.992 130.506 112.38 130.23C112.768 129.955 113.17 129.766 113.581 129.659C113.995 129.553 114.402 129.53 114.81 129.586C115.215 129.643 115.595 129.78 115.947 129.994C116.298 130.208 116.605 130.5 116.866 130.872C117.125 131.237 117.297 131.623 117.384 132.028C117.471 132.433 117.474 132.838 117.392 133.237C117.311 133.639 117.153 134.016 116.914 134.371C116.678 134.725 116.366 135.037 115.983 135.31L115.986 135.307ZM115.3 134.351C115.519 134.196 115.693 134.013 115.826 133.805C115.955 133.597 116.039 133.372 116.079 133.13C116.118 132.888 116.11 132.646 116.053 132.402C115.997 132.157 115.885 131.918 115.719 131.685C115.553 131.451 115.364 131.265 115.153 131.133C114.942 130.998 114.715 130.908 114.475 130.866C114.234 130.824 113.995 130.827 113.755 130.883C113.516 130.936 113.286 131.04 113.066 131.198C112.847 131.353 112.67 131.535 112.538 131.746C112.405 131.957 112.321 132.182 112.284 132.421C112.248 132.661 112.256 132.905 112.315 133.147C112.372 133.392 112.484 133.631 112.65 133.864C112.816 134.098 113.004 134.283 113.215 134.418C113.426 134.553 113.651 134.644 113.89 134.689C114.13 134.734 114.369 134.728 114.61 134.672C114.852 134.615 115.083 134.511 115.302 134.357L115.3 134.351Z" fill="#7FB138"/>
<path d="M121.746 130.779C121.102 131.339 120.441 131.6 119.766 131.558C119.091 131.516 118.461 131.159 117.876 130.489L115.668 127.952L116.726 127.033L118.911 129.542C119.285 129.969 119.642 130.203 119.988 130.242C120.334 130.281 120.663 130.16 120.978 129.888C121.299 129.609 121.462 129.297 121.473 128.951C121.482 128.605 121.302 128.217 120.928 127.789L118.742 125.28L119.774 124.383L121.982 126.92C122.568 127.59 122.832 128.262 122.781 128.937C122.731 129.612 122.385 130.228 121.746 130.785V130.779Z" fill="#7FB138"/>
<path d="M127.007 125.719C126.68 126.065 126.323 126.33 125.935 126.518C125.55 126.704 125.153 126.808 124.748 126.827C124.343 126.847 123.946 126.785 123.561 126.645C123.176 126.504 122.816 126.276 122.487 125.964C122.158 125.652 121.913 125.309 121.75 124.929C121.587 124.549 121.508 124.155 121.508 123.747C121.508 123.337 121.592 122.935 121.758 122.538C121.924 122.141 122.172 121.77 122.504 121.421C122.869 121.033 123.266 120.746 123.688 120.558C124.11 120.369 124.546 120.288 124.993 120.308L124.981 121.52C124.658 121.52 124.366 121.576 124.107 121.686C123.848 121.795 123.612 121.964 123.398 122.189C123.201 122.397 123.055 122.62 122.956 122.861C122.858 123.101 122.813 123.342 122.819 123.587C122.824 123.832 122.878 124.071 122.984 124.302C123.091 124.532 123.246 124.746 123.454 124.943C123.654 125.131 123.873 125.275 124.11 125.368C124.346 125.463 124.588 125.505 124.832 125.497C125.077 125.489 125.316 125.432 125.552 125.325C125.786 125.221 126.003 125.064 126.199 124.856C126.388 124.656 126.54 124.431 126.652 124.178C126.765 123.925 126.829 123.638 126.843 123.312L128.118 123.43C128.073 123.843 127.949 124.254 127.746 124.653C127.544 125.055 127.294 125.41 126.998 125.722L127.007 125.719ZM127.119 124.226L125.477 122.67L126.351 121.748L128.123 123.427L127.116 124.226H127.119Z" fill="#7FB138"/>
<path d="M130.5 121.576L129.639 122.681L124.892 118.983L125.752 117.877L130.5 121.576ZM127.426 115.725L128.281 114.626L133.029 118.324L132.174 119.424L127.426 115.725ZM130.292 117.827L128.483 120.147L127.555 119.424L129.364 117.104L130.292 117.827Z" fill="#7FB138"/>
<path d="M135.417 114.792L130.225 111.748L131.713 109.211C132.095 108.559 132.506 108.14 132.947 107.957C133.386 107.774 133.811 107.799 134.216 108.038C134.489 108.199 134.686 108.404 134.806 108.654C134.927 108.905 134.975 109.18 134.947 109.479C134.919 109.777 134.818 110.075 134.643 110.37L134.416 110.047C134.607 109.72 134.829 109.464 135.085 109.279C135.341 109.093 135.614 108.989 135.906 108.967C136.199 108.944 136.494 109.023 136.795 109.2C137.239 109.462 137.484 109.841 137.529 110.339C137.574 110.837 137.394 111.428 136.995 112.108L135.42 114.795L135.417 114.792ZM135.212 113.068L136.038 111.658C136.218 111.352 136.303 111.087 136.294 110.862C136.286 110.637 136.173 110.463 135.957 110.334C135.735 110.204 135.524 110.19 135.324 110.291C135.124 110.393 134.936 110.598 134.756 110.905L133.878 112.404L133.004 111.892L133.757 110.609C133.929 110.317 134.008 110.064 133.999 109.85C133.988 109.636 133.881 109.467 133.673 109.344C133.465 109.223 133.268 109.211 133.077 109.307C132.885 109.405 132.705 109.6 132.534 109.892L131.833 111.087L135.217 113.07L135.212 113.068Z" fill="#7FB138"/>
<path d="M138.744 108.879L133.357 106.193L133.982 104.939L139.368 107.625L138.741 108.879H138.744Z" fill="#7FB138"/>
<path d="M141.325 103.502C141.145 103.941 140.906 104.317 140.611 104.63C140.316 104.942 139.981 105.184 139.607 105.353C139.233 105.521 138.842 105.609 138.428 105.617C138.018 105.625 137.604 105.544 137.191 105.372C136.772 105.201 136.42 104.967 136.136 104.672C135.852 104.379 135.635 104.039 135.489 103.657C135.343 103.274 135.273 102.869 135.281 102.441C135.289 102.014 135.385 101.581 135.565 101.139C135.745 100.7 135.981 100.323 136.274 100.014C136.566 99.7047 136.898 99.4628 137.272 99.294C137.646 99.1253 138.037 99.0381 138.451 99.0296C138.864 99.0212 139.278 99.1056 139.697 99.2771C140.11 99.4459 140.462 99.6794 140.754 99.9775C141.044 100.273 141.264 100.613 141.41 100.996C141.556 101.378 141.624 101.783 141.612 102.208C141.601 102.636 141.505 103.066 141.328 103.499L141.325 103.502ZM140.231 103.063C140.333 102.813 140.383 102.568 140.383 102.32C140.383 102.076 140.333 101.84 140.237 101.614C140.141 101.389 140.003 101.19 139.823 101.013C139.643 100.835 139.424 100.695 139.157 100.585C138.892 100.475 138.634 100.422 138.383 100.419C138.133 100.419 137.894 100.464 137.666 100.557C137.438 100.65 137.239 100.782 137.064 100.956C136.89 101.131 136.752 101.342 136.651 101.592C136.549 101.84 136.499 102.09 136.499 102.337C136.499 102.585 136.549 102.821 136.645 103.043C136.744 103.266 136.881 103.465 137.059 103.642C137.239 103.817 137.461 103.96 137.725 104.07C137.99 104.18 138.248 104.233 138.499 104.236C138.749 104.236 138.988 104.194 139.213 104.104C139.438 104.014 139.641 103.882 139.815 103.704C139.989 103.527 140.127 103.316 140.231 103.066V103.063Z" fill="#7FB138"/>
<path d="M143.821 96.4024C143.686 96.8468 143.489 97.2377 143.23 97.5753C142.969 97.9128 142.665 98.1828 142.311 98.3797C141.956 98.5794 141.576 98.7032 141.169 98.751C140.758 98.7988 140.336 98.7566 139.903 98.6272C139.47 98.4978 139.096 98.2981 138.781 98.0337C138.466 97.7693 138.215 97.4543 138.032 97.0915C137.85 96.7287 137.74 96.3349 137.709 95.9073C137.678 95.4826 137.729 95.0467 137.864 94.6023C138.013 94.1016 138.235 93.6769 138.53 93.3225C138.826 92.9681 139.18 92.7037 139.599 92.5293L140.131 93.6319C139.847 93.7556 139.613 93.9244 139.422 94.1325C139.233 94.3435 139.096 94.591 139.011 94.8751C138.93 95.1451 138.902 95.4039 138.924 95.657C138.947 95.9102 139.017 96.1436 139.132 96.3574C139.248 96.5711 139.405 96.7568 139.602 96.9143C139.799 97.0718 140.035 97.1927 140.311 97.2743C140.586 97.3559 140.848 97.3868 141.101 97.3643C141.354 97.3418 141.585 97.2715 141.801 97.1562C142.015 97.0409 142.201 96.8833 142.361 96.6865C142.519 96.4896 142.64 96.2561 142.718 95.9861C142.806 95.6992 142.825 95.4179 142.78 95.1367C142.735 94.8582 142.628 94.5882 142.462 94.3266L143.514 93.6994C143.768 94.0763 143.919 94.4926 143.973 94.951C144.026 95.4095 143.978 95.8933 143.827 96.3968L143.821 96.4024Z" fill="#7FB138"/>
<path d="M144.997 91.4326L144.724 92.808L138.82 91.6351L139.093 90.2597L144.997 91.4326ZM139.625 87.5877L139.895 86.2207L145.799 87.3936L145.526 88.7606L139.622 87.5877H139.625ZM143.129 88.1783L142.556 91.0642L141.4 90.8335L141.973 87.9477L143.129 88.1783Z" fill="#7FB138"/>
<path d="M145.964 86.4677L140.237 83.2162L140.372 81.8464L146.628 79.751L146.484 81.2051L140.98 82.8815L141.033 82.3246L146.105 85.0473L145.964 86.4677ZM144.814 84.9967L143.795 84.541L144.102 81.4442L145.19 81.1883L144.814 84.9967Z" fill="#7FB138"/>
<path d="M146.633 78.8398L140.614 78.8004L140.631 76.1959C140.634 75.6558 140.724 75.1946 140.901 74.8036C141.078 74.4155 141.331 74.1145 141.658 73.9064C141.987 73.6954 142.375 73.5941 142.822 73.597C143.275 73.597 143.663 73.7095 143.984 73.9232C144.307 74.137 144.552 74.4408 144.718 74.8317C144.884 75.2227 144.965 75.6868 144.963 76.2268L144.951 78.0663L144.352 77.425L146.639 77.4391L146.631 78.8398H146.633ZM144.51 77.425L143.843 78.0579L143.854 76.2943C143.854 75.8696 143.767 75.549 143.584 75.3296C143.402 75.1102 143.146 75.0005 142.814 74.9977C142.482 74.9977 142.223 75.1017 142.043 75.3183C141.86 75.5349 141.767 75.8556 141.765 76.2803L141.753 78.0438L141.095 77.4025L144.51 77.425ZM146.659 75.0061L144.465 76.5053L144.473 75.0089L146.667 73.5098L146.659 75.0061Z" fill="#7FB138"/>
<defs>
<linearGradient id="paint0_linear_214_5868" x1="62.4435" y1="21.4214" x2="170.94" y2="154.577" gradientUnits="userSpaceOnUse">
<stop stop-color="#81B135"/>
<stop offset="0.34" stop-color="#649B36"/>
<stop offset="0.7" stop-color="#4C8A37"/>
<stop offset="0.92" stop-color="#448438"/>
</linearGradient>
<linearGradient id="paint1_linear_214_5868" x1="35.6896" y1="43.2229" x2="144.187" y2="176.379" gradientUnits="userSpaceOnUse">
<stop stop-color="#81B135"/>
<stop offset="0.34" stop-color="#649B36"/>
<stop offset="0.7" stop-color="#4C8A37"/>
<stop offset="0.92" stop-color="#448438"/>
</linearGradient>
<linearGradient id="paint2_linear_214_5868" x1="71.7851" y1="13.8131" x2="180.282" y2="146.966" gradientUnits="userSpaceOnUse">
<stop stop-color="#81B135"/>
<stop offset="0.34" stop-color="#649B36"/>
<stop offset="0.7" stop-color="#4C8A37"/>
<stop offset="0.92" stop-color="#448438"/>
</linearGradient>
<linearGradient id="paint3_linear_214_5868" x1="25.8784" y1="51.2165" x2="134.375" y2="184.372" gradientUnits="userSpaceOnUse">
<stop stop-color="#81B135"/>
<stop offset="0.34" stop-color="#649B36"/>
<stop offset="0.7" stop-color="#4C8A37"/>
<stop offset="0.92" stop-color="#448438"/>
</linearGradient>
<linearGradient id="paint4_linear_214_5868" x1="12.1243" y1="62.4223" x2="120.621" y2="195.578" gradientUnits="userSpaceOnUse">
<stop stop-color="#81B135"/>
<stop offset="0.34" stop-color="#649B36"/>
<stop offset="0.7" stop-color="#4C8A37"/>
<stop offset="0.92" stop-color="#448438"/>
</linearGradient>
<linearGradient id="paint5_linear_214_5868" x1="78.9146" y1="8.00194" x2="187.411" y2="141.158" gradientUnits="userSpaceOnUse">
<stop stop-color="#81B135"/>
<stop offset="0.34" stop-color="#649B36"/>
<stop offset="0.7" stop-color="#4C8A37"/>
<stop offset="0.92" stop-color="#448438"/>
</linearGradient>
<radialGradient id="paint6_radial_214_5868" cx="0" cy="0" r="1" gradientUnits="userSpaceOnUse" gradientTransform="translate(70.4459 73.8699) scale(165.415 165.415)">
<stop stop-color="#FFF28F"/>
<stop offset="0.01" stop-color="#FEEE87"/>
<stop offset="0.06" stop-color="#FDE167"/>
<stop offset="0.11" stop-color="#FCD54C"/>
<stop offset="0.17" stop-color="#FBCC36"/>
<stop offset="0.23" stop-color="#FAC425"/>
<stop offset="0.32" stop-color="#FABF19"/>
<stop offset="0.43" stop-color="#FABC12"/>
<stop offset="0.75" stop-color="#FABC11"/>
</radialGradient>
<radialGradient id="paint7_radial_214_5868" cx="0" cy="0" r="1" gradientUnits="userSpaceOnUse" gradientTransform="translate(0.142335 73.8697) scale(165.415 165.415)">
<stop stop-color="#FFF28F"/>
<stop offset="0.01" stop-color="#FEEE87"/>
<stop offset="0.06" stop-color="#FDE167"/>
<stop offset="0.11" stop-color="#FCD54C"/>
<stop offset="0.17" stop-color="#FBCC36"/>
<stop offset="0.23" stop-color="#FAC425"/>
<stop offset="0.32" stop-color="#FABF19"/>
<stop offset="0.43" stop-color="#FABC12"/>
<stop offset="0.75" stop-color="#FABC11"/>
</radialGradient>
<radialGradient id="paint8_radial_214_5868" cx="0" cy="0" r="1" gradientUnits="userSpaceOnUse" gradientTransform="translate(70.446 73.87) scale(165.415 165.415)">
<stop stop-color="#FFF28F"/>
<stop offset="0.01" stop-color="#FEEE87"/>
<stop offset="0.06" stop-color="#FDE167"/>
<stop offset="0.11" stop-color="#FCD54C"/>
<stop offset="0.17" stop-color="#FBCC36"/>
<stop offset="0.23" stop-color="#FAC425"/>
<stop offset="0.32" stop-color="#FABF19"/>
<stop offset="0.43" stop-color="#FABC12"/>
<stop offset="0.75" stop-color="#FABC11"/>
</radialGradient>
<radialGradient id="paint9_radial_214_5868" cx="0" cy="0" r="1" gradientUnits="userSpaceOnUse" gradientTransform="translate(70.4457 73.87) scale(165.415 165.415)">
<stop stop-color="#FFF28F"/>
<stop offset="0.01" stop-color="#FEEE87"/>
<stop offset="0.06" stop-color="#FDE167"/>
<stop offset="0.11" stop-color="#FCD54C"/>
<stop offset="0.17" stop-color="#FBCC36"/>
<stop offset="0.23" stop-color="#FAC425"/>
<stop offset="0.32" stop-color="#FABF19"/>
<stop offset="0.43" stop-color="#FABC12"/>
<stop offset="0.75" stop-color="#FABC11"/>
</radialGradient>
<radialGradient id="paint10_radial_214_5868" cx="0" cy="0" r="1" gradientUnits="userSpaceOnUse" gradientTransform="translate(0.142883 73.8699) scale(165.415 165.415)">
<stop stop-color="#FFF28F"/>
<stop offset="0.01" stop-color="#FEEE87"/>
<stop offset="0.06" stop-color="#FDE167"/>
<stop offset="0.11" stop-color="#FCD54C"/>
<stop offset="0.17" stop-color="#FBCC36"/>
<stop offset="0.23" stop-color="#FAC425"/>
<stop offset="0.32" stop-color="#FABF19"/>
<stop offset="0.43" stop-color="#FABC12"/>
<stop offset="0.75" stop-color="#FABC11"/>
</radialGradient>
<radialGradient id="paint11_radial_214_5868" cx="0" cy="0" r="1" gradientUnits="userSpaceOnUse" gradientTransform="translate(70.4465 73.8699) scale(165.415 165.415)">
<stop stop-color="#FFF28F"/>
<stop offset="0.01" stop-color="#FEEE87"/>
<stop offset="0.06" stop-color="#FDE167"/>
<stop offset="0.11" stop-color="#FCD54C"/>
<stop offset="0.17" stop-color="#FBCC36"/>
<stop offset="0.23" stop-color="#FAC425"/>
<stop offset="0.32" stop-color="#FABF19"/>
<stop offset="0.43" stop-color="#FABC12"/>
<stop offset="0.75" stop-color="#FABC11"/>
</radialGradient>
<radialGradient id="paint12_radial_214_5868" cx="0" cy="0" r="1" gradientUnits="userSpaceOnUse" gradientTransform="translate(70.4459 73.8699) scale(165.415 165.415)">
<stop stop-color="#FFF28F"/>
<stop offset="0.01" stop-color="#FEEE87"/>
<stop offset="0.06" stop-color="#FDE167"/>
<stop offset="0.11" stop-color="#FCD54C"/>
<stop offset="0.17" stop-color="#FBCC36"/>
<stop offset="0.23" stop-color="#FAC425"/>
<stop offset="0.32" stop-color="#FABF19"/>
<stop offset="0.43" stop-color="#FABC12"/>
<stop offset="0.75" stop-color="#FABC11"/>
</radialGradient>
<radialGradient id="paint13_radial_214_5868" cx="0" cy="0" r="1" gradientUnits="userSpaceOnUse" gradientTransform="translate(70.4456 73.8699) scale(165.415 165.415)">
<stop stop-color="#FFF28F"/>
<stop offset="0.01" stop-color="#FEEE87"/>
<stop offset="0.06" stop-color="#FDE167"/>
<stop offset="0.11" stop-color="#FCD54C"/>
<stop offset="0.17" stop-color="#FBCC36"/>
<stop offset="0.23" stop-color="#FAC425"/>
<stop offset="0.32" stop-color="#FABF19"/>
<stop offset="0.43" stop-color="#FABC12"/>
<stop offset="0.75" stop-color="#FABC11"/>
</radialGradient>
<radialGradient id="paint14_radial_214_5868" cx="0" cy="0" r="1" gradientUnits="userSpaceOnUse" gradientTransform="translate(70.446 73.8697) scale(165.415 165.415)">
<stop stop-color="#FFF28F"/>
<stop offset="0.01" stop-color="#FEEE87"/>
<stop offset="0.06" stop-color="#FDE167"/>
<stop offset="0.11" stop-color="#FCD54C"/>
<stop offset="0.17" stop-color="#FBCC36"/>
<stop offset="0.23" stop-color="#FAC425"/>
<stop offset="0.32" stop-color="#FABF19"/>
<stop offset="0.43" stop-color="#FABC12"/>
<stop offset="0.75" stop-color="#FABC11"/>
</radialGradient>
<radialGradient id="paint15_radial_214_5868" cx="0" cy="0" r="1" gradientUnits="userSpaceOnUse" gradientTransform="translate(70.4462 73.8696) scale(165.415 165.415)">
<stop stop-color="#FFF28F"/>
<stop offset="0.01" stop-color="#FEEE87"/>
<stop offset="0.06" stop-color="#FDE167"/>
<stop offset="0.11" stop-color="#FCD54C"/>
<stop offset="0.17" stop-color="#FBCC36"/>
<stop offset="0.23" stop-color="#FAC425"/>
<stop offset="0.32" stop-color="#FABF19"/>
<stop offset="0.43" stop-color="#FABC12"/>
<stop offset="0.75" stop-color="#FABC11"/>
</radialGradient>
<linearGradient id="paint16_linear_214_5868" x1="50.5603" y1="31.1054" x2="159.057" y2="164.261" gradientUnits="userSpaceOnUse">
<stop stop-color="#81B135"/>
<stop offset="0.34" stop-color="#649B36"/>
<stop offset="0.7" stop-color="#4C8A37"/>
<stop offset="0.92" stop-color="#448438"/>
</linearGradient>
</defs>
</svg>
